<svg xmlns="http://www.w3.org/2000/svg" width="150" height="150"><path d="M149.4 75c0 40.8-33.3 74-74.4 74C33.8 149 .5 115.7.5 75 .5 34 33.8.7 75 .7c41 0 74.4 33 74.4 74z" fill="#f55"/><g fill="#1a1a1a"><path d="M101.6 113.4c-2.4-2.7-1.5-11.7-1.5-11.7s5-21 7.5-25.8c2.6-5 2.7-18.7 2.7-18.7s-.5-8.5-4.2-19c-3.8-10.6-16.8-19.4-25.6-20.8-1-5-8.7-10.8-8.7-10.8s1.3 10.6 0 10.8c-1.5.2-7.4 2-7.4 2l1.3 4.3C58 26 55 28.3 55 28.3l-1.7 3.2C52 34.5 35 48 34.3 48.8c-1 1-.4 2.7-.4 2.7s-.4 3.5-.6 3.7c-.2.2-.7 3 .2 4 1 1.2 1.7 2.6 3.5 4 2 1.7 2.5.6 2.5.6s0 .6 5.3 1.4c6.4 0 8.6-4.6 8.6-4.6s1.8-3.2 6.8-2.3c10 5.2 16.6 1.3 16.6 1.3s-8 6.7-20 24.2c-12 17.6-3.5 29.6-3.5 29.6h48.3zM106.2 132.8c0 1-1 2-2 2H50c-1.3 0-2.2-1-2.2-2v-15.4c0-1 1-2 2-2h54.4c1 0 2 1 2 2v15.4z"/></g></svg>