<svg xmlns="http://www.w3.org/2000/svg" width="150" height="150"><path d="M149.7 74.5c0 41-33.3 74-74.5 74-41 0-74.4-33-74.4-74S34 .5 75.2.5c41.2 0 74.5 33 74.5 74z" fill="#f55"/><g fill="#1a1a1a"><path d="M103.5 133.7c.4 1.2.6 3.8.6 3.8H46.7s0-2.6.5-4c.6-1 1.8-2 2-2.3l.4-1.2c-2.4-3.3-4-8-3.5-13 .3-5.2 4-10.3 6.5-14.3v-.3l.3-.6c-.7 0-2.4-1.3-2-3 .5-2 2.3-2.3 3-2.3h.4L55 95c4.6-11 9.8-28.6 11.6-39h-9.2c-.4-.2-4.8-2.6-4.5-6.4.2-4.8 4.7-6.6 5-6.6h9.6c-5.8-3-10-9-10-16 0-10 8-18 17.7-18s17.5 8 17.5 18c0 7-4 13-10 16h9.5c.4 0 5 1.8 5.4 6.6.3 3.8-4.3 6.2-4.7 6.3h-9c1.7 10.6 8.2 30 13.3 39.5l.2.4c.3.2 0 .2.3.5.8 0 2.5.5 3 2.4.4 1.5-1.2 2.8-1.8 2.8h-.2v1c3 4.3 5.6 10 6 15 .3 4.8-1 8.7-3.4 12l.2 1.5c.5.4 1.5 1.4 2 2.4z"/></g></svg>