<svg xmlns="http://www.w3.org/2000/svg" width="150" height="150"><path d="M149.5 74.7c0 41-33.4 74-74.5 74-41 0-74.5-33-74.5-74S34 .7 75 .7c41 0 74.5 33 74.5 74z" fill="#f55"/><g fill="#1a1a1a"><path d="M102 117.7c1.3-1.3 2.2-3 2.2-5.2 0-4-3-7-7-7h-1.5l-7.8-39c3.2-.6 5.6-3.5 5.6-7 0-1.5-.5-3-1.3-4H56c-.8 1-1.3 2.5-1.3 4 0 3.5 2.4 6.4 5.7 7l-7.8 39H51c-3.8 0-7 3-7 7 0 2 1 4 2.3 5.2-3.6 0-6.5 3-6.5 6.5v2.7c0 .7.6 1.3 1.4 1.3h66c.7 0 1.3-.6 1.3-1.4V124c0-3.6-3-6.5-6.5-6.5zM103 23c0-.8-1-1.4-2-1.4H91c-1 0-2 .6-2 1.4v11.4H81V23c0-.8-1-1.4-2-1.4H69c-1 0-2 .6-2 1.4v11.4h-8V23c0-.8-.8-1.4-2-1.4h-9.8c-1.2 0-2 .6-2 1.4v25.5H103V23z"/></g></svg>