<svg xmlns="http://www.w3.org/2000/svg" width="150" height="150"><path d="M149.35 74.66c0 40.785-33.243 73.85-74.253 73.85S.843 115.445.843 74.66C.843 33.87 34.088.806 75.097.806c41.01 0 74.254 33.065 74.254 73.852z" fill="#f55"/><g fill="#1a1a1a"><path d="M108.02 124.81c0 1.79-1.45 3.24-3.24 3.24H44.72c-1.79 0-3.24-1.45-3.24-3.24v-6.914c0-1.79 1.45-3.24 3.24-3.24h60.057c1.79 0 3.24 1.45 3.24 3.24v6.913zm23.746-82.422c0-3.538-2.878-6.415-6.415-6.415s-6.414 2.877-6.414 6.415c0 1.78.73 3.393 1.905 4.556l-14.418 28.692-.14-27.725c1.892-1.116 3.168-3.17 3.168-5.522 0-3.538-2.878-6.415-6.416-6.415-3.537 0-6.415 2.877-6.415 6.415 0 2.143 1.06 4.038 2.677 5.203L88.965 78.906l-10.513-31.3c1.63-1.163 2.697-3.066 2.697-5.217 0-3.538-2.88-6.415-6.416-6.415-3.538 0-6.416 2.877-6.416 6.415 0 2.15 1.068 4.054 2.698 5.22L60.502 78.95 50.164 47.597c1.623-1.165 2.685-3.063 2.685-5.21 0-3.537-2.878-6.414-6.416-6.414-3.538 0-6.415 2.877-6.415 6.415 0 2.352 1.275 4.407 3.167 5.523l-.14 27.768-14.562-28.905c1.08-1.15 1.745-2.69 1.745-4.385 0-3.538-2.877-6.415-6.415-6.415-3.538 0-6.415 2.877-6.415 6.415 0 2.927 1.973 5.397 4.657 6.164l21.128 56.226c.474 1.264 1.683 2.1 3.033 2.1h57.033c1.352 0 2.56-.837 3.035-2.102l21.118-56.316c2.533-.858 4.363-3.253 4.363-6.072z"/></g></svg>