<svg xmlns="http://www.w3.org/2000/svg" width="150" height="150"><path d="M149.6 74.7c0 41-33.3 74-74.4 74-41.2 0-74.5-33-74.5-74S34 .7 75.2.7c41 0 74.4 33 74.4 74z" fill="#f55"/><g fill="#1a1a1a"><path d="M125.5 63l-20 41c-.6 1.2-1.8 2-3 2H49.8c-1.4 0-2.7-.8-3.2-2l-20-41c-.5-1-.4-2.5.3-3.5.5-.6 9.6-12.8 24-13.7 6-.4 12 1.3 18 5L60 42.3c-1-1-1.3-3-.5-4.2L73 15.8c.8-1 2-1.7 3-1.7 1.4 0 2.5.8 3 1.8L92.6 38c1 1.3.7 3-.5 4.2l-8.8 9c6-4 12-5.7 18-5.4 14.5 1 23.6 13 24 13.7.7 1 .8 2.4.3 3.6zm-18.7 55c0-2-1.6-3.6-3.5-3.6H48.7c-2 0-3.5 1.6-3.5 3.5v7.8c0 2 1.6 3.5 3.5 3.5h54.6c2 0 3.5-1.5 3.5-3.5v-8z"/></g></svg>