<?xml version="1.0" encoding="UTF-8" standalone="no"?>
<!-- Created with Inkscape (http://www.inkscape.org/) -->

<svg
   xmlns:dc="http://purl.org/dc/elements/1.1/"
   xmlns:cc="http://creativecommons.org/ns#"
   xmlns:rdf="http://www.w3.org/1999/02/22-rdf-syntax-ns#"
   xmlns:svg="http://www.w3.org/2000/svg"
   xmlns="http://www.w3.org/2000/svg"
   xmlns:sodipodi="http://sodipodi.sourceforge.net/DTD/sodipodi-0.dtd"
   xmlns:inkscape="http://www.inkscape.org/namespaces/inkscape"
   width="150"
   height="150"
   id="svg5495"
   version="1.1"
   inkscape:version="0.48.5 r10040"
   sodipodi:docname="white.king.svg">
  <defs
     id="defs5497" />
  <sodipodi:namedview
     id="base"
     pagecolor="#ffffff"
     bordercolor="#666666"
     borderopacity="1.0"
     inkscape:pageopacity="0.0"
     inkscape:pageshadow="2"
     inkscape:zoom="5.3"
     inkscape:cx="78.623847"
     inkscape:cy="75"
     inkscape:document-units="px"
     inkscape:current-layer="g11393"
     showgrid="false"
     inkscape:window-width="1920"
     inkscape:window-height="1001"
     inkscape:window-x="-9"
     inkscape:window-y="-9"
     inkscape:window-maximized="1" />
  <metadata
     id="metadata5500">
    <rdf:RDF>
      <cc:Work
         rdf:about="">
        <dc:format>image/svg+xml</dc:format>
        <dc:type
           rdf:resource="http://purl.org/dc/dcmitype/StillImage" />
        <dc:title></dc:title>
      </cc:Work>
    </rdf:RDF>
  </metadata>
  <g
     inkscape:label="bishop.white"
     inkscape:groupmode="layer"
     id="layer1"
     transform="translate(0,-902.36218)">
    <g
       transform="translate(-218.94011,-17.81708)"
       id="g11393">
      <g
         id="g6822"
         transform="matrix(5.9013298,0,0,5.9013298,203.77125,-4753.849)">
        <path
           d="m 217.86669,125.4384 c 0,40.83739 -34.28757,73.94263 -76.58344,73.94263 -42.295869,0 -76.583444,-33.10524 -76.583444,-73.94263 0,-40.837389 34.287575,-73.942634 76.583444,-73.942634 42.29587,0 76.58344,33.105245 76.58344,73.942634 z"
           sodipodi:ry="73.942635"
           sodipodi:rx="76.583443"
           sodipodi:cy="125.4384"
           sodipodi:cx="141.28325"
           id="path7637"
           style="fill:#ff5555;fill-opacity:1;fill-rule:nonzero;stroke:none"
           sodipodi:type="arc"
           transform="matrix(0.16450889,0,0,0.16945964,-7.9654204,952.83788)" />
        <g
           style="fill:#1a1a1a;stroke:none"
           transform="matrix(0.53697198,0,0,0.55313171,4.7694474,962.46197)"
           id="g7639">
          <g
             style="fill:#1a1a1a;stroke:none"
             id="g7641">
            <path
               style="fill:#1a1a1a;stroke:none"
               inkscape:connector-curvature="0"
               d="m 30.186,38.382 c 0.157,0.354 0.207,1.089 0.207,1.089 H 8.988 c 0,0 0.004,-0.74 0.187,-1.111 0.184,-0.373 0.726,-0.719 0.726,-0.719 h 0.096 c 0.004,-0.078 0.014,-0.164 0.031,-0.255 H 10.025 C 9.164,36.423 8.377,34.994 8.5,33.522 c 0.123,-1.477 1.652,-2.957 2.504,-4.104 h 0.011 c 0.019,-0.089 0.043,-0.173 0.072,-0.255 -0.227,-0.008 -0.904,-0.358 -0.764,-0.817 0.165,-0.571 0.899,-0.712 1.112,-0.712 h 0.073 c 0.064,-0.084 0.182,-0.176 0.387,-0.275 1.797,-2.373 5.083,-5.746 4.138,-8.771 -0.878,0 -1.545,0 -1.58,-0.001 -0.146,-0.011 -1.18,-0.389 -1.088,-0.991 0.107,-0.753 1.175,-1.022 1.313,-1.022 0.033,0 0.409,0 0.944,0 0,0 -0.099,-2.641 -0.151,-2.716 -0.531,-0.056 -0.938,-0.367 -0.938,-0.747 0,-0.419 0.491,-0.763 1.101,-0.763 C 13.79,11.219 13.025,8.997 13.8,7.837 14.462,6.85 15.446,6.068 16.263,5.215 l 1.422,2.051 c 0,0 0.115,0.376 0.633,0.366 0.584,-0.012 0.25,-0.413 0.25,-0.413 L 16.777,4.657 C 17.293,4.151 18.382,3.126 19.083,2.447 18.421,2.227 18.17,1.778 18.17,1.238 18.17,0.488 18.811,0 19.903,0 c 1.092,0 1.934,0.488 1.934,1.236 0,0.54 -0.375,0.989 -1.038,1.209 2.562,2.481 3.922,3.522 5.173,5.392 0.776,1.16 0.119,3.382 -1.727,4.511 0.608,0 1.102,0.344 1.102,0.763 0,0.412 -0.475,0.743 -1.065,0.756 l -0.047,2.707 c 0.746,0 1.294,0 1.333,0 0.139,0 1.147,0.321 1.255,1.076 0.093,0.603 -0.882,0.928 -1.028,0.938 -0.04,10e-4 -0.994,10e-4 -2.158,10e-4 0.117,2.112 3.867,8.297 4.586,9.049 h 0.073 c 0.214,0 0.998,0.122 1.163,0.696 0.142,0.456 -0.812,0.834 -0.812,0.834 -0.005,0 2.222,3 2.328,4.49 0.103,1.402 -0.694,2.676 -1.525,3.627 0.042,0.132 0.068,0.262 0.063,0.383 0.115,0.081 0.537,0.412 0.673,0.714 z"
               id="path7643" />
          </g>
          <g
             style="fill:#1a1a1a;stroke:none"
             id="g7645" />
          <g
             style="fill:#1a1a1a;stroke:none"
             id="g7647" />
          <g
             style="fill:#1a1a1a;stroke:none"
             id="g7649" />
          <g
             style="fill:#1a1a1a;stroke:none"
             id="g7651" />
          <g
             style="fill:#1a1a1a;stroke:none"
             id="g7653" />
          <g
             style="fill:#1a1a1a;stroke:none"
             id="g7655" />
          <g
             style="fill:#1a1a1a;stroke:none"
             id="g7657" />
          <g
             style="fill:#1a1a1a;stroke:none"
             id="g7659" />
          <g
             style="fill:#1a1a1a;stroke:none"
             id="g7661" />
          <g
             style="fill:#1a1a1a;stroke:none"
             id="g7663" />
          <g
             style="fill:#1a1a1a;stroke:none"
             id="g7665" />
          <g
             style="fill:#1a1a1a;stroke:none"
             id="g7667" />
          <g
             style="fill:#1a1a1a;stroke:none"
             id="g7669" />
          <g
             style="fill:#1a1a1a;stroke:none"
             id="g7671" />
          <g
             style="fill:#1a1a1a;stroke:none"
             id="g7673" />
        </g>
      </g>
    </g>
  </g>
  <g
     inkscape:groupmode="layer"
     id="layer2"
     inkscape:label="bishop.black" />
  <g
     inkscape:groupmode="layer"
     id="layer3"
     inkscape:label="rook.white" />
  <g
     inkscape:groupmode="layer"
     id="layer4"
     inkscape:label="rook.black" />
  <g
     inkscape:groupmode="layer"
     id="layer5"
     inkscape:label="knight.white" />
  <g
     inkscape:groupmode="layer"
     id="layer6"
     inkscape:label="knight.black" />
</svg>
