<?xml version="1.0" encoding="UTF-8" standalone="no"?>
<!-- Created with Inkscape (http://www.inkscape.org/) -->

<svg
   xmlns:dc="http://purl.org/dc/elements/1.1/"
   xmlns:cc="http://creativecommons.org/ns#"
   xmlns:rdf="http://www.w3.org/1999/02/22-rdf-syntax-ns#"
   xmlns:svg="http://www.w3.org/2000/svg"
   xmlns="http://www.w3.org/2000/svg"
   xmlns:sodipodi="http://sodipodi.sourceforge.net/DTD/sodipodi-0.dtd"
   xmlns:inkscape="http://www.inkscape.org/namespaces/inkscape"
   width="150"
   height="150"
   id="svg5495"
   version="1.1"
   inkscape:version="0.48.5 r10040"
   sodipodi:docname="white.pawn.svg">
  <defs
     id="defs5497" />
  <sodipodi:namedview
     id="base"
     pagecolor="#ffffff"
     bordercolor="#666666"
     borderopacity="1.0"
     inkscape:pageopacity="0.0"
     inkscape:pageshadow="2"
     inkscape:zoom="5.3"
     inkscape:cx="78.623847"
     inkscape:cy="75"
     inkscape:document-units="px"
     inkscape:current-layer="g11393"
     showgrid="false"
     inkscape:window-width="1920"
     inkscape:window-height="1001"
     inkscape:window-x="-9"
     inkscape:window-y="-9"
     inkscape:window-maximized="1" />
  <metadata
     id="metadata5500">
    <rdf:RDF>
      <cc:Work
         rdf:about="">
        <dc:format>image/svg+xml</dc:format>
        <dc:type
           rdf:resource="http://purl.org/dc/dcmitype/StillImage" />
        <dc:title></dc:title>
      </cc:Work>
    </rdf:RDF>
  </metadata>
  <g
     inkscape:label="bishop.white"
     inkscape:groupmode="layer"
     id="layer1"
     transform="translate(0,-902.36218)">
    <g
       transform="translate(-218.94011,-17.81708)"
       id="g11393">
      <g
         id="g6694"
         transform="matrix(5.9088587,0,0,5.9088587,25.239559,-4423.8792)">
        <path
           transform="matrix(0.16450889,0,0,0.16945964,22.257372,895.84995)"
           sodipodi:type="arc"
           style="fill:#ff5555;fill-opacity:1;fill-rule:nonzero;stroke:none"
           id="path5857-9"
           sodipodi:cx="141.28325"
           sodipodi:cy="125.4384"
           sodipodi:rx="76.583443"
           sodipodi:ry="73.942635"
           d="m 217.86669,125.4384 c 0,40.83739 -34.28757,73.94263 -76.58344,73.94263 -42.295869,0 -76.583444,-33.10524 -76.583444,-73.94263 0,-40.837389 34.287575,-73.942634 76.583444,-73.942634 42.29587,0 76.58344,33.105245 76.58344,73.942634 z" />
        <g
           style="fill:#ffffff"
           transform="matrix(0.07892707,0,0,0.07892707,35.91857,906.85747)"
           id="g7059">
          <path
             style="fill:#ffffff"
             inkscape:connector-curvature="0"
             d="m 229.244,104.906 -42.75,87.875 C 185.238,195.362 182.62,197 179.75,197 H 67.25 c -2.87,0 -5.488,-1.638 -6.744,-4.219 l -42.75,-87.875 c -1.214,-2.495 -0.951,-5.456 0.683,-7.698 0.815,-1.118 20.314,-27.411 51.072,-29.307 13.017,-0.813 25.868,2.857 38.414,10.883 L 89.421,60.28 c -2.442,-2.442 -2.9,-6.237 -1.11,-9.191 L 117.086,3.612 C 118.445,1.37 120.878,0 123.5,0 c 2.622,0 5.055,1.37 6.414,3.612 l 28.775,47.477 c 1.79,2.954 1.332,6.749 -1.11,9.191 l -18.942,18.942 c 12.704,-8.238 25.722,-12.015 38.897,-11.209 30.728,1.874 50.207,28.073 51.021,29.188 1.639,2.242 1.904,5.207 0.689,7.705 z M 189.167,222.5 c 0,-4.142 -3.358,-7.5 -7.5,-7.5 h -117 c -4.142,0 -7.5,3.358 -7.5,7.5 v 17 c 0,4.142 3.358,7.5 7.5,7.5 h 117 c 4.142,0 7.5,-3.358 7.5,-7.5 v -17 z"
             id="path7021" />
          <g
             style="fill:#ffffff"
             id="g7023" />
          <g
             style="fill:#ffffff"
             id="g7025" />
          <g
             style="fill:#ffffff"
             id="g7027" />
          <g
             style="fill:#ffffff"
             id="g7029" />
          <g
             style="fill:#ffffff"
             id="g7031" />
          <g
             style="fill:#ffffff"
             id="g7033" />
          <g
             style="fill:#ffffff"
             id="g7035" />
          <g
             style="fill:#ffffff"
             id="g7037" />
          <g
             style="fill:#ffffff"
             id="g7039" />
          <g
             style="fill:#ffffff"
             id="g7041" />
          <g
             style="fill:#ffffff"
             id="g7043" />
          <g
             style="fill:#ffffff"
             id="g7045" />
          <g
             style="fill:#ffffff"
             id="g7047" />
          <g
             style="fill:#ffffff"
             id="g7049" />
          <g
             style="fill:#ffffff"
             id="g7051" />
        </g>
      </g>
    </g>
  </g>
  <g
     inkscape:groupmode="layer"
     id="layer2"
     inkscape:label="bishop.black" />
  <g
     inkscape:groupmode="layer"
     id="layer3"
     inkscape:label="rook.white" />
  <g
     inkscape:groupmode="layer"
     id="layer4"
     inkscape:label="rook.black" />
  <g
     inkscape:groupmode="layer"
     id="layer5"
     inkscape:label="knight.white" />
  <g
     inkscape:groupmode="layer"
     id="layer6"
     inkscape:label="knight.black" />
</svg>
