<?xml version="1.0" encoding="UTF-8" standalone="no"?>
<!-- Created with Inkscape (http://www.inkscape.org/) -->

<svg
   xmlns:dc="http://purl.org/dc/elements/1.1/"
   xmlns:cc="http://creativecommons.org/ns#"
   xmlns:rdf="http://www.w3.org/1999/02/22-rdf-syntax-ns#"
   xmlns:svg="http://www.w3.org/2000/svg"
   xmlns="http://www.w3.org/2000/svg"
   xmlns:sodipodi="http://sodipodi.sourceforge.net/DTD/sodipodi-0.dtd"
   xmlns:inkscape="http://www.inkscape.org/namespaces/inkscape"
   width="150"
   height="150"
   id="svg5495"
   version="1.1"
   inkscape:version="0.48.5 r10040"
   sodipodi:docname="white.bishop.svg">
  <defs
     id="defs5497" />
  <sodipodi:namedview
     id="base"
     pagecolor="#ffffff"
     bordercolor="#666666"
     borderopacity="1.0"
     inkscape:pageopacity="0.0"
     inkscape:pageshadow="2"
     inkscape:zoom="3.7476659"
     inkscape:cx="92.349745"
     inkscape:cy="89.095999"
     inkscape:document-units="px"
     inkscape:current-layer="layer1"
     showgrid="false"
     inkscape:window-width="1920"
     inkscape:window-height="1001"
     inkscape:window-x="-9"
     inkscape:window-y="-9"
     inkscape:window-maximized="1" />
  <metadata
     id="metadata5500">
    <rdf:RDF>
      <cc:Work
         rdf:about="">
        <dc:format>image/svg+xml</dc:format>
        <dc:type
           rdf:resource="http://purl.org/dc/dcmitype/StillImage" />
        <dc:title></dc:title>
      </cc:Work>
    </rdf:RDF>
  </metadata>
  <g
     inkscape:label="bishop.white"
     inkscape:groupmode="layer"
     id="layer1"
     transform="translate(0,-902.36218)">
    <g
       id="g6734"
       transform="matrix(5.8861657,0,0,5.8861657,-551.25577,-4424.5472)">
      <path
         transform="matrix(0.16450889,0,0,0.16945964,83.143695,896.47444)"
         sodipodi:type="arc"
         style="fill:#ff5555;fill-opacity:1;fill-rule:nonzero;stroke:none"
         id="path5857-4"
         sodipodi:cx="141.28325"
         sodipodi:cy="125.4384"
         sodipodi:rx="76.583443"
         sodipodi:ry="73.942635"
         d="m 217.86669,125.4384 c 0,40.83739 -34.28757,73.94263 -76.58344,73.94263 -42.295869,0 -76.583444,-33.10524 -76.583444,-73.94263 0,-40.837389 34.287575,-73.942634 76.583444,-73.942634 42.29587,0 76.58344,33.105245 76.58344,73.942634 z" />
      <g
         style="fill:#ffffff"
         id="g6368"
         transform="matrix(0.73632667,0,0,0.73632667,94.991134,906.20812)">
        <g
           style="fill:#ffffff"
           id="g6370">
          <g
             style="fill:#ffffff"
             id="g6372">
            <path
               style="fill:#ffffff"
               id="path6374"
               d="m 21.595,24.502 c -0.562,-0.617 -0.354,-2.674 -0.354,-2.674 0,0 1.107,-4.826 1.711,-5.932 0.604,-1.105 0.62,-4.278 0.62,-4.278 0,0 -0.118,-1.963 -0.974,-4.384 C 21.742,4.814 18.746,2.794 16.726,2.468 16.519,1.333 14.734,0 14.734,0 c 0,0 0.295,2.439 -0.03,2.483 -0.325,0.044 -1.682,0.443 -1.682,0.443 l 0.31,1.003 c -1.756,0.518 -2.458,1.019 -2.458,1.019 0,0 -0.05,0.089 -0.375,0.753 -0.325,0.664 -4.205,3.762 -4.388,3.969 -0.183,0.207 -0.078,0.604 -0.078,0.604 0,0 -0.062,0.812 -0.106,0.856 -0.044,0.045 -0.163,0.664 0.051,0.93 0.214,0.267 0.376,0.59 0.803,0.944 0.428,0.354 0.546,0.118 0.546,0.118 0,0 0.036,0.135 1.225,0.321 1.461,0.013 1.962,-1.059 1.962,-1.059 0,0 0.428,-0.752 1.564,-0.531 2.272,1.181 3.815,0.292 3.815,0.292 0,0 -1.849,1.532 -4.603,5.564 C 8.536,21.74 10.503,24.5 10.503,24.5 h 11.092 z"
               inkscape:connector-curvature="0" />
            <path
               style="fill:#ffffff"
               id="path6376"
               d="m 22.653,28.955 c 0,0.26 -0.211,0.471 -0.472,0.471 H 9.71 c -0.261,0 -0.472,-0.211 -0.472,-0.471 v -3.533 c 0,-0.26 0.211,-0.471 0.472,-0.471 h 12.472 c 0.261,0 0.472,0.211 0.472,0.471 v 3.533 z"
               inkscape:connector-curvature="0" />
          </g>
        </g>
        <g
           style="fill:#ffffff"
           id="g6378" />
        <g
           style="fill:#ffffff"
           id="g6380" />
        <g
           style="fill:#ffffff"
           id="g6382" />
        <g
           style="fill:#ffffff"
           id="g6384" />
        <g
           style="fill:#ffffff"
           id="g6386" />
        <g
           style="fill:#ffffff"
           id="g6388" />
        <g
           style="fill:#ffffff"
           id="g6390" />
        <g
           style="fill:#ffffff"
           id="g6392" />
        <g
           style="fill:#ffffff"
           id="g6394" />
        <g
           style="fill:#ffffff"
           id="g6396" />
        <g
           style="fill:#ffffff"
           id="g6398" />
        <g
           style="fill:#ffffff"
           id="g6400" />
        <g
           style="fill:#ffffff"
           id="g6402" />
        <g
           style="fill:#ffffff"
           id="g6404" />
        <g
           style="fill:#ffffff"
           id="g6406" />
      </g>
    </g>
  </g>
  <g
     inkscape:groupmode="layer"
     id="layer2"
     inkscape:label="bishop.black" />
  <g
     inkscape:groupmode="layer"
     id="layer3"
     inkscape:label="rook.white" />
  <g
     inkscape:groupmode="layer"
     id="layer4"
     inkscape:label="rook.black" />
  <g
     inkscape:groupmode="layer"
     id="layer5"
     inkscape:label="knight.white" />
  <g
     inkscape:groupmode="layer"
     id="layer6"
     inkscape:label="knight.black" />
</svg>
