<svg xmlns="http://www.w3.org/2000/svg" width="150" height="150"><path d="M149.6 75c0 41-33.3 74-74.4 74C34 149 .7 116 .7 75S34 1 75.2 1c41 0 74.4 33 74.4 74z" fill="#f55"/><g fill="#fff"><path d="M125.4 63.4l-20 41c-.5 1-1.7 2-3 2H50c-1.4 0-2.7-1-3.2-2l-20-41c-.5-1.2-.4-2.6.3-3.6.5-.6 9.6-12.8 24-13.7 6-.3 12 1.4 18 5.2L60 42.5c-1-1-1.3-3-.5-4.2L73 16c.8-1 2-1.6 3-1.6 1.4 0 2.5.7 3 1.7l13.5 22.3c1 1.3.7 3-.5 4.2l-8.8 9c6-4 12-5.7 18-5.3 14.5.8 23.5 13 24 13.6.7 1 .8 2.4.2 3.6zm-18.6 54.8c0-2-1.6-3.5-3.5-3.5H48.7c-2 0-3.5 1.6-3.5 3.5v8c0 2 1.6 3.4 3.5 3.4h54.6c2 0 3.5-1.5 3.5-3.5v-7.8z"/></g></svg>