<svg xmlns="http://www.w3.org/2000/svg" width="150" height="150"><path d="M149.8 74.8c0 41-33.4 74-74.5 74C34 149 .8 116 .8 75S34 .8 75.3.8c41 0 74.5 33 74.5 74z" fill="#f55"/><g fill="#fff"><path d="M109 131.6c.5 1 .6 3.5.6 3.5h-68s0-2.3.7-3.5c.5-1.2 2.3-2.4 2.3-2.4h.3v-.7c-2.8-3-5.3-7.8-5-12.6.5-5 5.4-9.7 8-13.5l.3-.8c-.7 0-2.8-1.2-2.4-2.7.4-1.8 2.8-2.3 3.4-2.3h.3c.2-.3.5-.6 1.2-1 5.6-7.7 16-18.7 13-28.6h-5c-.4 0-3.7-1.3-3.4-3.2.3-2.5 3.7-3.4 4-3.4h3s-.2-8.6-.4-9c-1.6 0-3-1-3-2.3 0-1.5 1.6-2.6 3.6-2.6-6-3.7-8.3-11-6-14.8 2.2-3.2 5.4-5.7 8-8.5l4.5 6.8s.3 1.2 2 1.2c1.8 0 .8-1.4.8-1.4l-5.6-8.4 7.3-7.2c-2-.7-3-2.2-3-4 0-2.4 2.2-4 5.6-4 3.5 0 6.2 1.6 6.2 4 0 1.8-1.2 3.3-3.3 4 8 8 12.4 11.5 16.4 17.6 2.5 3.8.4 11-5.5 14.8 2 0 3.6 1 3.6 2.5 0 1.2-1.5 2.3-3.4 2.4v8.8h4c.6 0 3.8 1 4 3.5.4 2-2.7 3-3.2 3h-6.8c.4 7 12.3 27.3 14.5 29.7h.3c.7 0 3 .4 3.7 2.3.4 1.5-2.6 2.7-2.6 2.7s7 9.8 7.5 14.7c.3 4.7-2.2 9-5 12 .3.4.4.8.3 1.2.4.3 1.7 1.4 2.2 2.4z"/></g></svg>