<svg xmlns="http://www.w3.org/2000/svg" width="150" height="150"><path d="M149.3 74.7c0 40.8-33.3 74-74.3 74S.7 115.4.7 74.6 34 .7 75 .7s74.3 33.2 74.3 74z" fill="#f55"/><g fill="#fff"><path d="M103.2 133.8c.4 1.2.6 3.7.6 3.7H46.4s0-2.5.5-3.8c.4-1 1.5-2 2-2.4 0-.5 0-1 .2-1.2-2.4-3.3-4-8-3.5-13 .4-5 4-10.2 6.6-14.2v-.3l.3-.6c-.8 0-2.4-1.4-2-3 .5-2 2.3-2.4 3-2.4h.4l.8-1.4c4.6-11 9.8-28.6 11.5-39h-9c-.6-.2-5-2.6-4.6-6.4.3-4.8 4.8-6.5 5.2-6.5h9.4V43c-6-2.7-10-8.8-10-16 0-9.6 8-17.6 17.6-17.6 9.7 0 17.5 8 17.5 17.7 0 7.2-4 13.3-10 16v.3H92c.4 0 5 1.7 5.4 6.5.3 3.8-4.3 6.2-4.7 6.3h-9C85.4 67 92 86.3 97 95.8l.2.4c.3.4 0 .3.3.6.8 0 2.5.5 3 2.4.4 1.6-1.2 3-1.8 3h-.2v.8c3 4.4 5.6 10 6 15.2.2 4.7-1 8.6-3.4 11.8.2.5.3 1 .3 1.6.4.4 1.5 1.4 2 2.4z"/></g></svg>