<svg xmlns="http://www.w3.org/2000/svg" width="150" height="150"><path d="M149 75c0 40.7-33 73.8-74 73.8S.8 115.8.8 75C.8 34.3 34 1.3 75 1.3s74 33 74 73.7z" fill="#f55"/><g fill="#fff"><path d="M101.5 113.4c-2.5-2.7-1.6-11.6-1.6-11.6s4.7-21 7.4-25.7c2.6-4.7 2.6-18.5 2.6-18.5s-.5-8.5-4.2-19S89 19.3 80.4 18C79.4 13 71.7 7 71.7 7s1.3 10.6 0 10.7c-1.5 0-7.4 2-7.4 2l1.4 4.2C58 26.5 55 28.6 55 28.6L53.4 32C52 34.7 35.2 48 34.4 49c-.8 1-.4 2.7-.4 2.7s-.2 3.5-.4 3.7c-.2.2-.7 3 .2 4 1 1.2 1.6 2.6 3.5 4 1.8 1.7 2.3.7 2.3.7s.2.6 5.3 1.4c6.3 0 8.4-4.5 8.4-4.5s2-3.4 6.8-2.4c10 5 16.6 1.2 16.6 1.2s-8 6.7-20 24c-12 17.6-3.4 29.6-3.4 29.6h48zM106 132.7c0 1-1 2-2 2H50c-1.2 0-2-1-2-2v-15.3c0-1.2.8-2 2-2h54c1 0 2 .8 2 2v15.3z"/></g></svg>