<svg xmlns="http://www.w3.org/2000/svg" width="150" height="150"><path d="M149.5 74.8c0 40.8-33.3 74-74.3 74S.8 115.5.8 74.7c0-41 33.3-74 74.4-74 41 0 74.3 33 74.3 74z" fill="#f55"/><g fill="#fff"><path d="M108 125c0 1.8-1.3 3.2-3 3.2H44.7c-1.8 0-3.3-1.4-3.3-3.2v-7c0-1.7 1.5-3.2 3.3-3.2h60c2 0 3.3 1.5 3.3 3.3v7zm24-82.5c0-3.6-3-6.5-6.5-6.5s-6.4 3-6.4 6.5c0 1.7.8 3.4 2 4.5l-14.5 28.8V48c1.8-1 3-3.2 3-5.5 0-3.6-2.8-6.5-6.3-6.5-3.6 0-6.5 3-6.5 6.5 0 2 1 4 2.7 5.2L89 79 78.6 47.7c1.7-1.2 2.7-3 2.7-5.2 0-3.6-2.8-6.5-6.4-6.5-3.5 0-6.4 3-6.4 6.5 0 2 1 4 2.7 5.2L60.7 79 50.2 47.8c1.6-1.2 2.7-3 2.7-5.2 0-3.6-3-6.5-6.5-6.5-3.6 0-6.4 3-6.4 6.5 0 2.3 1.3 4.4 3.2 5.5v27.8l-14.7-29c1-1 1.8-2.6 1.8-4.3 0-3.6-3-6.5-6.5-6.5s-6.4 3-6.4 6.5c0 3 2 5.4 4.7 6L43.3 105c.5 1.2 1.7 2 3 2h57.2c1.3 0 2.5-.8 3-2l21.2-56.5c2.5-.8 4.3-3.2 4.3-6z"/></g></svg>