<?xml version="1.0" encoding="UTF-8" standalone="no"?>
<!-- Created with Inkscape (http://www.inkscape.org/) -->

<svg
   xmlns:dc="http://purl.org/dc/elements/1.1/"
   xmlns:cc="http://creativecommons.org/ns#"
   xmlns:rdf="http://www.w3.org/1999/02/22-rdf-syntax-ns#"
   xmlns:svg="http://www.w3.org/2000/svg"
   xmlns="http://www.w3.org/2000/svg"
   xmlns:sodipodi="http://sodipodi.sourceforge.net/DTD/sodipodi-0.dtd"
   xmlns:inkscape="http://www.inkscape.org/namespaces/inkscape"
   width="150"
   height="150"
   id="svg5495"
   version="1.1"
   inkscape:version="0.48.5 r10040"
   sodipodi:docname="white.rook.svg">
  <defs
     id="defs5497" />
  <sodipodi:namedview
     id="base"
     pagecolor="#ffffff"
     bordercolor="#666666"
     borderopacity="1.0"
     inkscape:pageopacity="0.0"
     inkscape:pageshadow="2"
     inkscape:zoom="5.3"
     inkscape:cx="78.623847"
     inkscape:cy="75"
     inkscape:document-units="px"
     inkscape:current-layer="g11393"
     showgrid="false"
     inkscape:window-width="1920"
     inkscape:window-height="1001"
     inkscape:window-x="-9"
     inkscape:window-y="-9"
     inkscape:window-maximized="1" />
  <metadata
     id="metadata5500">
    <rdf:RDF>
      <cc:Work
         rdf:about="">
        <dc:format>image/svg+xml</dc:format>
        <dc:type
           rdf:resource="http://purl.org/dc/dcmitype/StillImage" />
        <dc:title></dc:title>
      </cc:Work>
    </rdf:RDF>
  </metadata>
  <g
     inkscape:label="bishop.white"
     inkscape:groupmode="layer"
     id="layer1"
     transform="translate(0,-902.36218)">
    <g
       transform="translate(-218.94011,-17.81708)"
       id="g11393">
      <g
         id="g6779"
         transform="matrix(5.8971976,0,0,5.8971976,-505.92661,-4580.4334)">
        <path
           transform="matrix(0.16450889,0,0,0.16945964,112.38995,924.15952)"
           sodipodi:type="arc"
           style="fill:#ff5555;fill-opacity:1;fill-rule:nonzero;stroke:none"
           id="path5857-1"
           sodipodi:cx="141.28325"
           sodipodi:cy="125.4384"
           sodipodi:rx="76.583443"
           sodipodi:ry="73.942635"
           d="m 217.86669,125.4384 c 0,40.83739 -34.28757,73.94263 -76.58344,73.94263 -42.295869,0 -76.583444,-33.10524 -76.583444,-73.94263 0,-40.837389 34.287575,-73.942634 76.583444,-73.942634 42.29587,0 76.58344,33.105245 76.58344,73.942634 z" />
        <g
           style="fill:#ffffff"
           id="g6332"
           transform="matrix(0.71129412,0,0,0.71129412,124.7859,934.34707)">
          <g
             style="fill:#ffffff"
             id="g6334">
            <path
               style="fill:#ffffff"
               id="path6336"
               d="m 21.967,29.641 c 0.11,0.289 0.146,0.896 0.146,0.896 H 8.423 c 0,0 0.002,-0.606 0.13,-0.914 0.108,-0.261 0.394,-0.502 0.48,-0.567 C 9.06,28.939 9.084,28.843 9.104,28.765 8.527,27.972 8.183,26.828 8.267,25.644 8.354,24.431 9.236,23.207 9.83,22.267 L 9.864,22.201 9.908,22.058 H 9.887 C 9.731,22.05 9.346,21.746 9.447,21.37 9.562,20.896 9.984,20.796 10.134,20.796 h 0.107 c 0.048,-0.099 0.115,-0.217 0.202,-0.354 1.083,-2.604 2.333,-6.809 2.739,-9.317 -1.083,0 -2.134,0 -2.174,-10e-4 C 10.9,11.105 9.862,10.542 9.931,9.63 c 0.08,-1.143 1.143,-1.56 1.247,-1.56 0.053,0 1.183,0 2.263,0 L 13.444,8.038 C 12.042,7.357 11.075,5.902 11.075,4.225 11.075,1.892 12.946,0 15.254,0 c 2.308,0 4.179,1.892 4.179,4.225 0,1.679 -0.966,3.134 -2.369,3.813 l 0.002,0.032 c 1.09,0 2.183,0 2.23,0 0.104,0 1.211,0.417 1.289,1.56 0.069,0.911 -1.012,1.477 -1.12,1.491 -0.036,10e-4 -1.052,10e-4 -2.142,10e-4 0.416,2.55 1.971,7.183 3.173,9.44 l 0.055,0.093 c 0.066,0.073 0.011,0.059 0.055,0.139 h 0.042 c 0.15,0 0.571,0.104 0.687,0.574 0.101,0.377 -0.282,0.681 -0.44,0.688 h -0.051 l 0.004,0.209 c 0.687,1.035 1.349,2.383 1.425,3.612 0.07,1.132 -0.243,2.05 -0.789,2.813 0.022,0.14 0.039,0.269 0.043,0.384 0.101,0.094 0.352,0.34 0.44,0.567 z"
               inkscape:connector-curvature="0" />
          </g>
          <g
             style="fill:#ffffff"
             id="g6338" />
          <g
             style="fill:#ffffff"
             id="g6340" />
          <g
             style="fill:#ffffff"
             id="g6342" />
          <g
             style="fill:#ffffff"
             id="g6344" />
          <g
             style="fill:#ffffff"
             id="g6346" />
          <g
             style="fill:#ffffff"
             id="g6348" />
          <g
             style="fill:#ffffff"
             id="g6350" />
          <g
             style="fill:#ffffff"
             id="g6352" />
          <g
             style="fill:#ffffff"
             id="g6354" />
          <g
             style="fill:#ffffff"
             id="g6356" />
          <g
             style="fill:#ffffff"
             id="g6358" />
          <g
             style="fill:#ffffff"
             id="g6360" />
          <g
             style="fill:#ffffff"
             id="g6362" />
          <g
             style="fill:#ffffff"
             id="g6364" />
          <g
             style="fill:#ffffff"
             id="g6366" />
        </g>
      </g>
    </g>
  </g>
  <g
     inkscape:groupmode="layer"
     id="layer2"
     inkscape:label="bishop.black" />
  <g
     inkscape:groupmode="layer"
     id="layer3"
     inkscape:label="rook.white" />
  <g
     inkscape:groupmode="layer"
     id="layer4"
     inkscape:label="rook.black" />
  <g
     inkscape:groupmode="layer"
     id="layer5"
     inkscape:label="knight.white" />
  <g
     inkscape:groupmode="layer"
     id="layer6"
     inkscape:label="knight.black" />
</svg>
