<svg xmlns="http://www.w3.org/2000/svg" width="150" height="150"><path d="M149.2 74.8c0 40.6-33 73.6-74 73.6s-74-33-74-73.6C1.2 34 34.2 1 75.2 1s74 33 74 73.8z" fill="#f55"/><g fill="#fff"><path d="M102 117.5c1.4-1.3 2.2-3 2.2-5 0-4-3-7.2-7-7.2h-1.4L88 66.6c3.3-.6 5.7-3.5 5.7-7 0-1.4-.5-2.8-1.3-4h-36c-1 1.2-1.4 2.6-1.4 4 0 3.5 2.4 6.4 5.7 7L53 105.3h-1.5c-4 0-7 3.2-7 7 0 2 .8 4 2.2 5.2-3.6 0-6.5 3-6.5 6.5v2.7c0 .8.6 1.4 1.4 1.4H107c1 0 1.5-.5 1.5-1.3V124c0-3.6-3-6.5-6.5-6.5zM103 23.4c0-.8-1-1.4-2-1.4H91c-1 0-2 .6-2 1.4v11.3h-7.7V23.4c0-.8-1-1.4-2-1.4h-10c-1 0-2 .6-2 1.4v11.3h-7.7V23.4c0-.8-1-1.4-2-1.4h-9.8c-1.2 0-2 .6-2 1.4v25.3H103V23.4z"/></g></svg>