<?xml version="1.0" encoding="UTF-8" standalone="no"?>
<!-- Created with Inkscape (http://www.inkscape.org/) -->

<svg
   xmlns:dc="http://purl.org/dc/elements/1.1/"
   xmlns:cc="http://creativecommons.org/ns#"
   xmlns:rdf="http://www.w3.org/1999/02/22-rdf-syntax-ns#"
   xmlns:svg="http://www.w3.org/2000/svg"
   xmlns="http://www.w3.org/2000/svg"
   xmlns:sodipodi="http://sodipodi.sourceforge.net/DTD/sodipodi-0.dtd"
   xmlns:inkscape="http://www.inkscape.org/namespaces/inkscape"
   width="150"
   height="150"
   id="svg5495"
   version="1.1"
   inkscape:version="0.48.5 r10040"
   sodipodi:docname="white.knight.svg">
  <defs
     id="defs5497" />
  <sodipodi:namedview
     id="base"
     pagecolor="#ffffff"
     bordercolor="#666666"
     borderopacity="1.0"
     inkscape:pageopacity="0.0"
     inkscape:pageshadow="2"
     inkscape:zoom="3.7476659"
     inkscape:cx="92.349745"
     inkscape:cy="89.095999"
     inkscape:document-units="px"
     inkscape:current-layer="g11393"
     showgrid="false"
     inkscape:window-width="1920"
     inkscape:window-height="1001"
     inkscape:window-x="-9"
     inkscape:window-y="-9"
     inkscape:window-maximized="1" />
  <metadata
     id="metadata5500">
    <rdf:RDF>
      <cc:Work
         rdf:about="">
        <dc:format>image/svg+xml</dc:format>
        <dc:type
           rdf:resource="http://purl.org/dc/dcmitype/StillImage" />
        <dc:title></dc:title>
      </cc:Work>
    </rdf:RDF>
  </metadata>
  <g
     inkscape:label="bishop.white"
     inkscape:groupmode="layer"
     id="layer1"
     transform="translate(0,-902.36218)">
    <g
       transform="translate(-218.94011,-17.81708)"
       id="g11393">
      <g
         id="g12900"
         transform="matrix(5.8765582,0,0,5.8765582,-1212.8993,-4527.3537)">
        <path
           d="m 217.86669,125.4384 c 0,40.83739 -34.28757,73.94263 -76.58344,73.94263 -42.295869,0 -76.583444,-33.10524 -76.583444,-73.94263 0,-40.837389 34.287575,-73.942634 76.583444,-73.942634 42.29587,0 76.58344,33.105245 76.58344,73.942634 z"
           sodipodi:ry="73.942635"
           sodipodi:rx="76.583443"
           sodipodi:cy="125.4384"
           sodipodi:cx="141.28325"
           id="path5857-3"
           style="fill:#ff5555;fill-opacity:1;fill-rule:nonzero;stroke:none"
           sodipodi:type="arc"
           transform="matrix(0.16450889,0,0,0.16945964,233.20681,918.46097)" />
        <g
           transform="matrix(0.03758116,0,0,0.03758116,247.27971,930.73859)"
           id="g6408"
           style="fill:#ffffff">
          <g
             id="g6410"
             style="fill:#ffffff">
            <path
               inkscape:connector-curvature="0"
               d="m 365.448,432.474 h -0.232 c 6.283,-5.818 10.28,-14.067 10.28,-23.306 0,-17.59 -14.262,-31.852 -31.852,-31.852 h -6.385 L 302.126,202.037 c 14.588,-2.908 25.591,-15.778 25.591,-31.221 0,-6.929 -2.271,-13.298 -6.026,-18.523 H 158.559 c -3.755,5.225 -6.026,11.594 -6.026,18.523 0,15.443 11.003,28.313 25.591,31.221 l -35.133,175.279 h -6.385 c -17.59,0 -31.852,14.262 -31.852,31.852 0,9.239 3.997,17.488 10.28,23.306 H 114.8 c -16.174,0 -29.292,13.118 -29.292,29.293 v 12.279 c 0,3.422 2.784,6.206 6.205,6.206 h 296.823 c 3.423,0 6.206,-2.784 6.206,-6.206 v -12.279 c 10e-4,-16.175 -13.118,-29.293 -29.294,-29.293 z"
               id="path6412"
               style="fill:#ffffff" />
            <path
               inkscape:connector-curvature="0"
               d="M 369.858,6.205 C 369.858,2.784 365.658,0 360.503,0 h -44.435 c -5.179,0 -9.361,2.784 -9.361,6.205 V 57.631 H 271.705 V 6.205 C 271.705,2.784 267.513,0 262.358,0 h -44.465 c -5.147,0 -9.347,2.784 -9.347,6.205 V 57.631 H 173.544 V 6.205 C 173.544,2.784 169.36,0 164.181,0 h -44.433 c -5.163,0 -9.355,2.784 -9.355,6.205 V 120.939 H 369.858 V 6.205 z"
               id="path6414"
               style="fill:#ffffff" />
          </g>
          <g
             id="g6416"
             style="fill:#ffffff" />
          <g
             id="g6418"
             style="fill:#ffffff" />
          <g
             id="g6420"
             style="fill:#ffffff" />
          <g
             id="g6422"
             style="fill:#ffffff" />
          <g
             id="g6424"
             style="fill:#ffffff" />
          <g
             id="g6426"
             style="fill:#ffffff" />
          <g
             id="g6428"
             style="fill:#ffffff" />
          <g
             id="g6430"
             style="fill:#ffffff" />
          <g
             id="g6432"
             style="fill:#ffffff" />
          <g
             id="g6434"
             style="fill:#ffffff" />
          <g
             id="g6436"
             style="fill:#ffffff" />
          <g
             id="g6438"
             style="fill:#ffffff" />
          <g
             id="g6440"
             style="fill:#ffffff" />
          <g
             id="g6442"
             style="fill:#ffffff" />
          <g
             id="g6444"
             style="fill:#ffffff" />
        </g>
      </g>
    </g>
  </g>
  <g
     inkscape:groupmode="layer"
     id="layer2"
     inkscape:label="bishop.black" />
  <g
     inkscape:groupmode="layer"
     id="layer3"
     inkscape:label="rook.white" />
  <g
     inkscape:groupmode="layer"
     id="layer4"
     inkscape:label="rook.black" />
  <g
     inkscape:groupmode="layer"
     id="layer5"
     inkscape:label="knight.white" />
  <g
     inkscape:groupmode="layer"
     id="layer6"
     inkscape:label="knight.black" />
</svg>
