<?xml version="1.0" encoding="UTF-8" standalone="no"?>
<!-- Created with Inkscape (http://www.inkscape.org/) -->

<svg
   xmlns:dc="http://purl.org/dc/elements/1.1/"
   xmlns:cc="http://creativecommons.org/ns#"
   xmlns:rdf="http://www.w3.org/1999/02/22-rdf-syntax-ns#"
   xmlns:svg="http://www.w3.org/2000/svg"
   xmlns="http://www.w3.org/2000/svg"
   xmlns:sodipodi="http://sodipodi.sourceforge.net/DTD/sodipodi-0.dtd"
   xmlns:inkscape="http://www.inkscape.org/namespaces/inkscape"
   width="150"
   height="150"
   id="svg5495"
   version="1.1"
   inkscape:version="0.48.5 r10040"
   sodipodi:docname="New document 3">
  <defs
     id="defs5497" />
  <sodipodi:namedview
     id="base"
     pagecolor="#ffffff"
     bordercolor="#666666"
     borderopacity="1.0"
     inkscape:pageopacity="0.0"
     inkscape:pageshadow="2"
     inkscape:zoom="3.7476659"
     inkscape:cx="92.349745"
     inkscape:cy="89.095999"
     inkscape:document-units="px"
     inkscape:current-layer="layer1"
     showgrid="false"
     inkscape:window-width="1920"
     inkscape:window-height="1001"
     inkscape:window-x="-9"
     inkscape:window-y="-9"
     inkscape:window-maximized="1" />
  <metadata
     id="metadata5500">
    <rdf:RDF>
      <cc:Work
         rdf:about="">
        <dc:format>image/svg+xml</dc:format>
        <dc:type
           rdf:resource="http://purl.org/dc/dcmitype/StillImage" />
        <dc:title></dc:title>
      </cc:Work>
    </rdf:RDF>
  </metadata>
  <g
     inkscape:label="bishop.white"
     inkscape:groupmode="layer"
     id="layer1"
     transform="translate(0,-902.36218)">
    <g
       id="g6779"
       transform="translate(64.840358,-26.149609)">
      <path
         transform="matrix(0.16450889,0,0,0.16945964,112.38995,924.15952)"
         sodipodi:type="arc"
         style="fill:#ff5555;fill-opacity:1;fill-rule:nonzero;stroke:none"
         id="path5857-1"
         sodipodi:cx="141.28325"
         sodipodi:cy="125.4384"
         sodipodi:rx="76.583443"
         sodipodi:ry="73.942635"
         d="m 217.86669,125.4384 c 0,40.83739 -34.28757,73.94263 -76.58344,73.94263 -42.295869,0 -76.583444,-33.10524 -76.583444,-73.94263 0,-40.837389 34.287575,-73.942634 76.583444,-73.942634 42.29587,0 76.58344,33.105245 76.58344,73.942634 z" />
      <g
         style="fill:#ffffff"
         id="g6332"
         transform="matrix(0.71129412,0,0,0.71129412,124.7859,934.34707)">
        <g
           style="fill:#ffffff"
           id="g6334">
          <path
             style="fill:#ffffff"
             id="path6336"
             d="m 21.967,29.641 c 0.11,0.289 0.146,0.896 0.146,0.896 H 8.423 c 0,0 0.002,-0.606 0.13,-0.914 0.108,-0.261 0.394,-0.502 0.48,-0.567 C 9.06,28.939 9.084,28.843 9.104,28.765 8.527,27.972 8.183,26.828 8.267,25.644 8.354,24.431 9.236,23.207 9.83,22.267 L 9.864,22.201 9.908,22.058 H 9.887 C 9.731,22.05 9.346,21.746 9.447,21.37 9.562,20.896 9.984,20.796 10.134,20.796 h 0.107 c 0.048,-0.099 0.115,-0.217 0.202,-0.354 1.083,-2.604 2.333,-6.809 2.739,-9.317 -1.083,0 -2.134,0 -2.174,-10e-4 C 10.9,11.105 9.862,10.542 9.931,9.63 c 0.08,-1.143 1.143,-1.56 1.247,-1.56 0.053,0 1.183,0 2.263,0 L 13.444,8.038 C 12.042,7.357 11.075,5.902 11.075,4.225 11.075,1.892 12.946,0 15.254,0 c 2.308,0 4.179,1.892 4.179,4.225 0,1.679 -0.966,3.134 -2.369,3.813 l 0.002,0.032 c 1.09,0 2.183,0 2.23,0 0.104,0 1.211,0.417 1.289,1.56 0.069,0.911 -1.012,1.477 -1.12,1.491 -0.036,10e-4 -1.052,10e-4 -2.142,10e-4 0.416,2.55 1.971,7.183 3.173,9.44 l 0.055,0.093 c 0.066,0.073 0.011,0.059 0.055,0.139 h 0.042 c 0.15,0 0.571,0.104 0.687,0.574 0.101,0.377 -0.282,0.681 -0.44,0.688 h -0.051 l 0.004,0.209 c 0.687,1.035 1.349,2.383 1.425,3.612 0.07,1.132 -0.243,2.05 -0.789,2.813 0.022,0.14 0.039,0.269 0.043,0.384 0.101,0.094 0.352,0.34 0.44,0.567 z"
             inkscape:connector-curvature="0" />
        </g>
        <g
           style="fill:#ffffff"
           id="g6338" />
        <g
           style="fill:#ffffff"
           id="g6340" />
        <g
           style="fill:#ffffff"
           id="g6342" />
        <g
           style="fill:#ffffff"
           id="g6344" />
        <g
           style="fill:#ffffff"
           id="g6346" />
        <g
           style="fill:#ffffff"
           id="g6348" />
        <g
           style="fill:#ffffff"
           id="g6350" />
        <g
           style="fill:#ffffff"
           id="g6352" />
        <g
           style="fill:#ffffff"
           id="g6354" />
        <g
           style="fill:#ffffff"
           id="g6356" />
        <g
           style="fill:#ffffff"
           id="g6358" />
        <g
           style="fill:#ffffff"
           id="g6360" />
        <g
           style="fill:#ffffff"
           id="g6362" />
        <g
           style="fill:#ffffff"
           id="g6364" />
        <g
           style="fill:#ffffff"
           id="g6366" />
      </g>
    </g>
    <g
       id="g6906"
       transform="translate(138.75303,44.294236)">
      <path
         d="m 217.86669,125.4384 c 0,40.83739 -34.28757,73.94263 -76.58344,73.94263 -42.295869,0 -76.583444,-33.10524 -76.583444,-73.94263 0,-40.837389 34.287575,-73.942634 76.583444,-73.942634 42.29587,0 76.58344,33.105245 76.58344,73.942634 z"
         sodipodi:ry="73.942635"
         sodipodi:rx="76.583443"
         sodipodi:cy="125.4384"
         sodipodi:cx="141.28325"
         id="path7599"
         style="fill:#ff5555;fill-opacity:1;fill-rule:nonzero;stroke:none"
         sodipodi:type="arc"
         transform="matrix(0.16450889,0,0,0.16945964,112.9787,981.85806)" />
      <g
         transform="matrix(0.71129412,0,0,0.71129412,125.37465,992.04568)"
         id="g7601"
         style="fill:#1a1a1a">
        <g
           id="g7603"
           style="fill:#1a1a1a">
          <path
             inkscape:connector-curvature="0"
             d="m 21.967,29.641 c 0.11,0.289 0.146,0.896 0.146,0.896 H 8.423 c 0,0 0.002,-0.606 0.13,-0.914 0.108,-0.261 0.394,-0.502 0.48,-0.567 C 9.06,28.939 9.084,28.843 9.104,28.765 8.527,27.972 8.183,26.828 8.267,25.644 8.354,24.431 9.236,23.207 9.83,22.267 L 9.864,22.201 9.908,22.058 H 9.887 C 9.731,22.05 9.346,21.746 9.447,21.37 9.562,20.896 9.984,20.796 10.134,20.796 h 0.107 c 0.048,-0.099 0.115,-0.217 0.202,-0.354 1.083,-2.604 2.333,-6.809 2.739,-9.317 -1.083,0 -2.134,0 -2.174,-10e-4 C 10.9,11.105 9.862,10.542 9.931,9.63 c 0.08,-1.143 1.143,-1.56 1.247,-1.56 0.053,0 1.183,0 2.263,0 L 13.444,8.038 C 12.042,7.357 11.075,5.902 11.075,4.225 11.075,1.892 12.946,0 15.254,0 c 2.308,0 4.179,1.892 4.179,4.225 0,1.679 -0.966,3.134 -2.369,3.813 l 0.002,0.032 c 1.09,0 2.183,0 2.23,0 0.104,0 1.211,0.417 1.289,1.56 0.069,0.911 -1.012,1.477 -1.12,1.491 -0.036,10e-4 -1.052,10e-4 -2.142,10e-4 0.416,2.55 1.971,7.183 3.173,9.44 l 0.055,0.093 c 0.066,0.073 0.011,0.059 0.055,0.139 h 0.042 c 0.15,0 0.571,0.104 0.687,0.574 0.101,0.377 -0.282,0.681 -0.44,0.688 h -0.051 l 0.004,0.209 c 0.687,1.035 1.349,2.383 1.425,3.612 0.07,1.132 -0.243,2.05 -0.789,2.813 0.022,0.14 0.039,0.269 0.043,0.384 0.101,0.094 0.352,0.34 0.44,0.567 z"
             id="path7605"
             style="fill:#1a1a1a" />
        </g>
        <g
           id="g7607"
           style="fill:#1a1a1a" />
        <g
           id="g7609"
           style="fill:#1a1a1a" />
        <g
           id="g7611"
           style="fill:#1a1a1a" />
        <g
           id="g7613"
           style="fill:#1a1a1a" />
        <g
           id="g7615"
           style="fill:#1a1a1a" />
        <g
           id="g7617"
           style="fill:#1a1a1a" />
        <g
           id="g7619"
           style="fill:#1a1a1a" />
        <g
           id="g7621"
           style="fill:#1a1a1a" />
        <g
           id="g7623"
           style="fill:#1a1a1a" />
        <g
           id="g7625"
           style="fill:#1a1a1a" />
        <g
           id="g7627"
           style="fill:#1a1a1a" />
        <g
           id="g7629"
           style="fill:#1a1a1a" />
        <g
           id="g7631"
           style="fill:#1a1a1a" />
        <g
           id="g7633"
           style="fill:#1a1a1a" />
        <g
           id="g7635"
           style="fill:#1a1a1a" />
      </g>
    </g>
    <g
       id="g6673"
       transform="matrix(5.9136346,0,0,5.9136346,-147.41911,-4465.2813)">
      <path
         transform="matrix(0.16450889,0,0,0.16945964,-8.5541846,895.13935)"
         sodipodi:type="arc"
         style="fill:#ff5555;fill-opacity:1;fill-rule:nonzero;stroke:none"
         id="path5857"
         sodipodi:cx="141.28325"
         sodipodi:cy="125.4384"
         sodipodi:rx="76.583443"
         sodipodi:ry="73.942635"
         d="m 217.86669,125.4384 c 0,40.83739 -34.28757,73.94263 -76.58344,73.94263 -42.295869,0 -76.583444,-33.10524 -76.583444,-73.94263 0,-40.837389 34.287575,-73.942634 76.583444,-73.942634 42.29587,0 76.58344,33.105245 76.58344,73.942634 z" />
      <g
         id="g5859"
         transform="matrix(0.53697198,0,0,0.55313171,4.1806844,904.76335)"
         style="fill:#ffffff;stroke:none">
        <g
           id="g5861"
           style="fill:#ffffff;stroke:none">
          <path
             id="path5863"
             d="m 30.186,38.382 c 0.157,0.354 0.207,1.089 0.207,1.089 H 8.988 c 0,0 0.004,-0.74 0.187,-1.111 0.184,-0.373 0.726,-0.719 0.726,-0.719 h 0.096 c 0.004,-0.078 0.014,-0.164 0.031,-0.255 H 10.025 C 9.164,36.423 8.377,34.994 8.5,33.522 c 0.123,-1.477 1.652,-2.957 2.504,-4.104 h 0.011 c 0.019,-0.089 0.043,-0.173 0.072,-0.255 -0.227,-0.008 -0.904,-0.358 -0.764,-0.817 0.165,-0.571 0.899,-0.712 1.112,-0.712 h 0.073 c 0.064,-0.084 0.182,-0.176 0.387,-0.275 1.797,-2.373 5.083,-5.746 4.138,-8.771 -0.878,0 -1.545,0 -1.58,-0.001 -0.146,-0.011 -1.18,-0.389 -1.088,-0.991 0.107,-0.753 1.175,-1.022 1.313,-1.022 0.033,0 0.409,0 0.944,0 0,0 -0.099,-2.641 -0.151,-2.716 -0.531,-0.056 -0.938,-0.367 -0.938,-0.747 0,-0.419 0.491,-0.763 1.101,-0.763 C 13.79,11.219 13.025,8.997 13.8,7.837 14.462,6.85 15.446,6.068 16.263,5.215 l 1.422,2.051 c 0,0 0.115,0.376 0.633,0.366 0.584,-0.012 0.25,-0.413 0.25,-0.413 L 16.777,4.657 C 17.293,4.151 18.382,3.126 19.083,2.447 18.421,2.227 18.17,1.778 18.17,1.238 18.17,0.488 18.811,0 19.903,0 c 1.092,0 1.934,0.488 1.934,1.236 0,0.54 -0.375,0.989 -1.038,1.209 2.562,2.481 3.922,3.522 5.173,5.392 0.776,1.16 0.119,3.382 -1.727,4.511 0.608,0 1.102,0.344 1.102,0.763 0,0.412 -0.475,0.743 -1.065,0.756 l -0.047,2.707 c 0.746,0 1.294,0 1.333,0 0.139,0 1.147,0.321 1.255,1.076 0.093,0.603 -0.882,0.928 -1.028,0.938 -0.04,10e-4 -0.994,10e-4 -2.158,10e-4 0.117,2.112 3.867,8.297 4.586,9.049 h 0.073 c 0.214,0 0.998,0.122 1.163,0.696 0.142,0.456 -0.812,0.834 -0.812,0.834 -0.005,0 2.222,3 2.328,4.49 0.103,1.402 -0.694,2.676 -1.525,3.627 0.042,0.132 0.068,0.262 0.063,0.383 0.115,0.081 0.537,0.412 0.673,0.714 z"
             inkscape:connector-curvature="0"
             style="fill:#ffffff;stroke:none" />
        </g>
        <g
           id="g5865"
           style="fill:#ffffff;stroke:none" />
        <g
           id="g5867"
           style="fill:#ffffff;stroke:none" />
        <g
           id="g5869"
           style="fill:#ffffff;stroke:none" />
        <g
           id="g5871"
           style="fill:#ffffff;stroke:none" />
        <g
           id="g5873"
           style="fill:#ffffff;stroke:none" />
        <g
           id="g5875"
           style="fill:#ffffff;stroke:none" />
        <g
           id="g5877"
           style="fill:#ffffff;stroke:none" />
        <g
           id="g5879"
           style="fill:#ffffff;stroke:none" />
        <g
           id="g5881"
           style="fill:#ffffff;stroke:none" />
        <g
           id="g5883"
           style="fill:#ffffff;stroke:none" />
        <g
           id="g5885"
           style="fill:#ffffff;stroke:none" />
        <g
           id="g5887"
           style="fill:#ffffff;stroke:none" />
        <g
           id="g5889"
           style="fill:#ffffff;stroke:none" />
        <g
           id="g5891"
           style="fill:#ffffff;stroke:none" />
        <g
           id="g5893"
           style="fill:#ffffff;stroke:none" />
      </g>
    </g>
    <g
       id="g6822"
       transform="translate(176.10961,14.675801)">
      <path
         d="m 217.86669,125.4384 c 0,40.83739 -34.28757,73.94263 -76.58344,73.94263 -42.295869,0 -76.583444,-33.10524 -76.583444,-73.94263 0,-40.837389 34.287575,-73.942634 76.583444,-73.942634 42.29587,0 76.58344,33.105245 76.58344,73.942634 z"
         sodipodi:ry="73.942635"
         sodipodi:rx="76.583443"
         sodipodi:cy="125.4384"
         sodipodi:cx="141.28325"
         id="path7637"
         style="fill:#ff5555;fill-opacity:1;fill-rule:nonzero;stroke:none"
         sodipodi:type="arc"
         transform="matrix(0.16450889,0,0,0.16945964,-7.9654204,952.83788)" />
      <g
         style="fill:#1a1a1a;stroke:none"
         transform="matrix(0.53697198,0,0,0.55313171,4.7694474,962.46197)"
         id="g7639">
        <g
           style="fill:#1a1a1a;stroke:none"
           id="g7641">
          <path
             style="fill:#1a1a1a;stroke:none"
             inkscape:connector-curvature="0"
             d="m 30.186,38.382 c 0.157,0.354 0.207,1.089 0.207,1.089 H 8.988 c 0,0 0.004,-0.74 0.187,-1.111 0.184,-0.373 0.726,-0.719 0.726,-0.719 h 0.096 c 0.004,-0.078 0.014,-0.164 0.031,-0.255 H 10.025 C 9.164,36.423 8.377,34.994 8.5,33.522 c 0.123,-1.477 1.652,-2.957 2.504,-4.104 h 0.011 c 0.019,-0.089 0.043,-0.173 0.072,-0.255 -0.227,-0.008 -0.904,-0.358 -0.764,-0.817 0.165,-0.571 0.899,-0.712 1.112,-0.712 h 0.073 c 0.064,-0.084 0.182,-0.176 0.387,-0.275 1.797,-2.373 5.083,-5.746 4.138,-8.771 -0.878,0 -1.545,0 -1.58,-0.001 -0.146,-0.011 -1.18,-0.389 -1.088,-0.991 0.107,-0.753 1.175,-1.022 1.313,-1.022 0.033,0 0.409,0 0.944,0 0,0 -0.099,-2.641 -0.151,-2.716 -0.531,-0.056 -0.938,-0.367 -0.938,-0.747 0,-0.419 0.491,-0.763 1.101,-0.763 C 13.79,11.219 13.025,8.997 13.8,7.837 14.462,6.85 15.446,6.068 16.263,5.215 l 1.422,2.051 c 0,0 0.115,0.376 0.633,0.366 0.584,-0.012 0.25,-0.413 0.25,-0.413 L 16.777,4.657 C 17.293,4.151 18.382,3.126 19.083,2.447 18.421,2.227 18.17,1.778 18.17,1.238 18.17,0.488 18.811,0 19.903,0 c 1.092,0 1.934,0.488 1.934,1.236 0,0.54 -0.375,0.989 -1.038,1.209 2.562,2.481 3.922,3.522 5.173,5.392 0.776,1.16 0.119,3.382 -1.727,4.511 0.608,0 1.102,0.344 1.102,0.763 0,0.412 -0.475,0.743 -1.065,0.756 l -0.047,2.707 c 0.746,0 1.294,0 1.333,0 0.139,0 1.147,0.321 1.255,1.076 0.093,0.603 -0.882,0.928 -1.028,0.938 -0.04,10e-4 -0.994,10e-4 -2.158,10e-4 0.117,2.112 3.867,8.297 4.586,9.049 h 0.073 c 0.214,0 0.998,0.122 1.163,0.696 0.142,0.456 -0.812,0.834 -0.812,0.834 -0.005,0 2.222,3 2.328,4.49 0.103,1.402 -0.694,2.676 -1.525,3.627 0.042,0.132 0.068,0.262 0.063,0.383 0.115,0.081 0.537,0.412 0.673,0.714 z"
             id="path7643" />
        </g>
        <g
           style="fill:#1a1a1a;stroke:none"
           id="g7645" />
        <g
           style="fill:#1a1a1a;stroke:none"
           id="g7647" />
        <g
           style="fill:#1a1a1a;stroke:none"
           id="g7649" />
        <g
           style="fill:#1a1a1a;stroke:none"
           id="g7651" />
        <g
           style="fill:#1a1a1a;stroke:none"
           id="g7653" />
        <g
           style="fill:#1a1a1a;stroke:none"
           id="g7655" />
        <g
           style="fill:#1a1a1a;stroke:none"
           id="g7657" />
        <g
           style="fill:#1a1a1a;stroke:none"
           id="g7659" />
        <g
           style="fill:#1a1a1a;stroke:none"
           id="g7661" />
        <g
           style="fill:#1a1a1a;stroke:none"
           id="g7663" />
        <g
           style="fill:#1a1a1a;stroke:none"
           id="g7665" />
        <g
           style="fill:#1a1a1a;stroke:none"
           id="g7667" />
        <g
           style="fill:#1a1a1a;stroke:none"
           id="g7669" />
        <g
           style="fill:#1a1a1a;stroke:none"
           id="g7671" />
        <g
           style="fill:#1a1a1a;stroke:none"
           id="g7673" />
      </g>
    </g>
    <g
       id="g6694"
       transform="translate(136.61837,-21.079787)">
      <path
         transform="matrix(0.16450889,0,0,0.16945964,22.257372,895.84995)"
         sodipodi:type="arc"
         style="fill:#ff5555;fill-opacity:1;fill-rule:nonzero;stroke:none"
         id="path5857-9"
         sodipodi:cx="141.28325"
         sodipodi:cy="125.4384"
         sodipodi:rx="76.583443"
         sodipodi:ry="73.942635"
         d="m 217.86669,125.4384 c 0,40.83739 -34.28757,73.94263 -76.58344,73.94263 -42.295869,0 -76.583444,-33.10524 -76.583444,-73.94263 0,-40.837389 34.287575,-73.942634 76.583444,-73.942634 42.29587,0 76.58344,33.105245 76.58344,73.942634 z" />
      <g
         style="fill:#ffffff"
         transform="matrix(0.07892707,0,0,0.07892707,35.91857,906.85747)"
         id="g7059">
        <path
           style="fill:#ffffff"
           inkscape:connector-curvature="0"
           d="m 229.244,104.906 -42.75,87.875 C 185.238,195.362 182.62,197 179.75,197 H 67.25 c -2.87,0 -5.488,-1.638 -6.744,-4.219 l -42.75,-87.875 c -1.214,-2.495 -0.951,-5.456 0.683,-7.698 0.815,-1.118 20.314,-27.411 51.072,-29.307 13.017,-0.813 25.868,2.857 38.414,10.883 L 89.421,60.28 c -2.442,-2.442 -2.9,-6.237 -1.11,-9.191 L 117.086,3.612 C 118.445,1.37 120.878,0 123.5,0 c 2.622,0 5.055,1.37 6.414,3.612 l 28.775,47.477 c 1.79,2.954 1.332,6.749 -1.11,9.191 l -18.942,18.942 c 12.704,-8.238 25.722,-12.015 38.897,-11.209 30.728,1.874 50.207,28.073 51.021,29.188 1.639,2.242 1.904,5.207 0.689,7.705 z M 189.167,222.5 c 0,-4.142 -3.358,-7.5 -7.5,-7.5 h -117 c -4.142,0 -7.5,3.358 -7.5,7.5 v 17 c 0,4.142 3.358,7.5 7.5,7.5 h 117 c 4.142,0 7.5,-3.358 7.5,-7.5 v -17 z"
           id="path7021" />
        <g
           style="fill:#ffffff"
           id="g7023" />
        <g
           style="fill:#ffffff"
           id="g7025" />
        <g
           style="fill:#ffffff"
           id="g7027" />
        <g
           style="fill:#ffffff"
           id="g7029" />
        <g
           style="fill:#ffffff"
           id="g7031" />
        <g
           style="fill:#ffffff"
           id="g7033" />
        <g
           style="fill:#ffffff"
           id="g7035" />
        <g
           style="fill:#ffffff"
           id="g7037" />
        <g
           style="fill:#ffffff"
           id="g7039" />
        <g
           style="fill:#ffffff"
           id="g7041" />
        <g
           style="fill:#ffffff"
           id="g7043" />
        <g
           style="fill:#ffffff"
           id="g7045" />
        <g
           style="fill:#ffffff"
           id="g7047" />
        <g
           style="fill:#ffffff"
           id="g7049" />
        <g
           style="fill:#ffffff"
           id="g7051" />
      </g>
    </g>
    <g
       id="g6843"
       transform="translate(138.75303,44.294236)">
      <path
         d="m 217.86669,125.4384 c 0,40.83739 -34.28757,73.94263 -76.58344,73.94263 -42.295869,0 -76.583444,-33.10524 -76.583444,-73.94263 0,-40.837389 34.287575,-73.942634 76.583444,-73.942634 42.29587,0 76.58344,33.105245 76.58344,73.942634 z"
         sodipodi:ry="73.942635"
         sodipodi:rx="76.583443"
         sodipodi:cy="125.4384"
         sodipodi:cx="141.28325"
         id="path7675"
         style="fill:#ff5555;fill-opacity:1;fill-rule:nonzero;stroke:none"
         sodipodi:type="arc"
         transform="matrix(0.16450889,0,0,0.16945964,22.846133,953.54858)" />
      <g
         id="g7677"
         transform="matrix(0.07892707,0,0,0.07892707,36.507334,964.55608)"
         style="fill:#1a1a1a">
        <path
           id="path7679"
           d="m 229.244,104.906 -42.75,87.875 C 185.238,195.362 182.62,197 179.75,197 H 67.25 c -2.87,0 -5.488,-1.638 -6.744,-4.219 l -42.75,-87.875 c -1.214,-2.495 -0.951,-5.456 0.683,-7.698 0.815,-1.118 20.314,-27.411 51.072,-29.307 13.017,-0.813 25.868,2.857 38.414,10.883 L 89.421,60.28 c -2.442,-2.442 -2.9,-6.237 -1.11,-9.191 L 117.086,3.612 C 118.445,1.37 120.878,0 123.5,0 c 2.622,0 5.055,1.37 6.414,3.612 l 28.775,47.477 c 1.79,2.954 1.332,6.749 -1.11,9.191 l -18.942,18.942 c 12.704,-8.238 25.722,-12.015 38.897,-11.209 30.728,1.874 50.207,28.073 51.021,29.188 1.639,2.242 1.904,5.207 0.689,7.705 z M 189.167,222.5 c 0,-4.142 -3.358,-7.5 -7.5,-7.5 h -117 c -4.142,0 -7.5,3.358 -7.5,7.5 v 17 c 0,4.142 3.358,7.5 7.5,7.5 h 117 c 4.142,0 7.5,-3.358 7.5,-7.5 v -17 z"
           inkscape:connector-curvature="0"
           style="fill:#1a1a1a" />
        <g
           id="g7681"
           style="fill:#1a1a1a" />
        <g
           id="g7683"
           style="fill:#1a1a1a" />
        <g
           id="g7685"
           style="fill:#1a1a1a" />
        <g
           id="g7687"
           style="fill:#1a1a1a" />
        <g
           id="g7689"
           style="fill:#1a1a1a" />
        <g
           id="g7691"
           style="fill:#1a1a1a" />
        <g
           id="g7693"
           style="fill:#1a1a1a" />
        <g
           id="g7695"
           style="fill:#1a1a1a" />
        <g
           id="g7697"
           style="fill:#1a1a1a" />
        <g
           id="g7699"
           style="fill:#1a1a1a" />
        <g
           id="g7701"
           style="fill:#1a1a1a" />
        <g
           id="g7703"
           style="fill:#1a1a1a" />
        <g
           id="g7705"
           style="fill:#1a1a1a" />
        <g
           id="g7707"
           style="fill:#1a1a1a" />
        <g
           id="g7709"
           style="fill:#1a1a1a" />
      </g>
    </g>
    <g
       id="g6714"
       transform="translate(193.18691,-10.673311)">
      <path
         transform="matrix(0.16450889,0,0,0.16945964,53.272971,896.16221)"
         sodipodi:type="arc"
         style="fill:#ff5555;fill-opacity:1;fill-rule:nonzero;stroke:none"
         id="path5857-5"
         sodipodi:cx="141.28325"
         sodipodi:cy="125.4384"
         sodipodi:rx="76.583443"
         sodipodi:ry="73.942635"
         d="m 217.86669,125.4384 c 0,40.83739 -34.28757,73.94263 -76.58344,73.94263 -42.295869,0 -76.583444,-33.10524 -76.583444,-73.94263 0,-40.837389 34.287575,-73.942634 76.583444,-73.942634 42.29587,0 76.58344,33.105245 76.58344,73.942634 z" />
      <g
         style="fill:#ffffff"
         transform="matrix(0.07330863,0,0,0.07330863,66.725835,908.96431)"
         id="g7155">
        <path
           style="fill:#ffffff"
           inkscape:connector-curvature="0"
           d="m 209.735,231.402 c 0,4.142 -3.358,7.5 -7.5,7.5 h -139 c -4.142,0 -7.5,-3.358 -7.5,-7.5 v -16 c 0,-4.142 3.358,-7.5 7.5,-7.5 h 139 c 4.142,0 7.5,3.358 7.5,7.5 v 16 z m 54.96,-190.761 c 0,-8.188 -6.66,-14.848 -14.848,-14.848 -8.188,0 -14.847,6.66 -14.847,14.848 0,4.121 1.69,7.853 4.41,10.545 l -33.372,66.406 -0.325,-64.168 c 4.379,-2.585 7.332,-7.34 7.332,-12.783 0,-8.188 -6.66,-14.848 -14.848,-14.848 -8.188,0 -14.848,6.66 -14.848,14.848 0,4.959 2.452,9.346 6.197,12.043 l -23.913,72.474 -24.332,-72.44 c 3.771,-2.695 6.243,-7.098 6.243,-12.077 0,-8.188 -6.66,-14.848 -14.848,-14.848 -8.188,0 -14.848,6.66 -14.848,14.848 0,4.979 2.472,9.383 6.244,12.078 L 99.757,125.263 75.831,52.697 c 3.755,-2.697 6.214,-7.09 6.214,-12.056 0,-8.188 -6.66,-14.848 -14.848,-14.848 -8.188,0 -14.847,6.66 -14.847,14.848 0,5.443 2.953,10.199 7.332,12.783 l -0.326,64.265 -33.7,-66.9 c 2.497,-2.658 4.039,-6.222 4.039,-10.148 0,-8.188 -6.66,-14.848 -14.848,-14.848 C 6.659,25.793 0,32.453 0,40.641 0,47.416 4.566,53.133 10.779,54.908 L 59.677,185.04 c 1.099,2.925 3.896,4.862 7.021,4.862 h 132 c 3.126,0 5.925,-1.939 7.022,-4.866 L 254.598,54.695 c 5.861,-1.987 10.097,-7.529 10.097,-14.054 z"
           id="path7117" />
        <g
           style="fill:#ffffff"
           id="g7119" />
        <g
           style="fill:#ffffff"
           id="g7121" />
        <g
           style="fill:#ffffff"
           id="g7123" />
        <g
           style="fill:#ffffff"
           id="g7125" />
        <g
           style="fill:#ffffff"
           id="g7127" />
        <g
           style="fill:#ffffff"
           id="g7129" />
        <g
           style="fill:#ffffff"
           id="g7131" />
        <g
           style="fill:#ffffff"
           id="g7133" />
        <g
           style="fill:#ffffff"
           id="g7135" />
        <g
           style="fill:#ffffff"
           id="g7137" />
        <g
           style="fill:#ffffff"
           id="g7139" />
        <g
           style="fill:#ffffff"
           id="g7141" />
        <g
           style="fill:#ffffff"
           id="g7143" />
        <g
           style="fill:#ffffff"
           id="g7145" />
        <g
           style="fill:#ffffff"
           id="g7147" />
      </g>
    </g>
    <g
       id="g6863"
       transform="translate(138.75303,44.294236)">
      <path
         d="m 217.86669,125.4384 c 0,40.83739 -34.28757,73.94263 -76.58344,73.94263 -42.295869,0 -76.583444,-33.10524 -76.583444,-73.94263 0,-40.837389 34.287575,-73.942634 76.583444,-73.942634 42.29587,0 76.58344,33.105245 76.58344,73.942634 z"
         sodipodi:ry="73.942635"
         sodipodi:rx="76.583443"
         sodipodi:cy="125.4384"
         sodipodi:cx="141.28325"
         id="path7711"
         style="fill:#ff5555;fill-opacity:1;fill-rule:nonzero;stroke:none"
         sodipodi:type="arc"
         transform="matrix(0.16450889,0,0,0.16945964,53.861727,953.8608)" />
      <g
         id="g7713"
         transform="matrix(0.07330863,0,0,0.07330863,67.314598,966.66289)"
         style="fill:#1a1a1a">
        <path
           id="path7715"
           d="m 209.735,231.402 c 0,4.142 -3.358,7.5 -7.5,7.5 h -139 c -4.142,0 -7.5,-3.358 -7.5,-7.5 v -16 c 0,-4.142 3.358,-7.5 7.5,-7.5 h 139 c 4.142,0 7.5,3.358 7.5,7.5 v 16 z m 54.96,-190.761 c 0,-8.188 -6.66,-14.848 -14.848,-14.848 -8.188,0 -14.847,6.66 -14.847,14.848 0,4.121 1.69,7.853 4.41,10.545 l -33.372,66.406 -0.325,-64.168 c 4.379,-2.585 7.332,-7.34 7.332,-12.783 0,-8.188 -6.66,-14.848 -14.848,-14.848 -8.188,0 -14.848,6.66 -14.848,14.848 0,4.959 2.452,9.346 6.197,12.043 l -23.913,72.474 -24.332,-72.44 c 3.771,-2.695 6.243,-7.098 6.243,-12.077 0,-8.188 -6.66,-14.848 -14.848,-14.848 -8.188,0 -14.848,6.66 -14.848,14.848 0,4.979 2.472,9.383 6.244,12.078 L 99.757,125.263 75.831,52.697 c 3.755,-2.697 6.214,-7.09 6.214,-12.056 0,-8.188 -6.66,-14.848 -14.848,-14.848 -8.188,0 -14.847,6.66 -14.847,14.848 0,5.443 2.953,10.199 7.332,12.783 l -0.326,64.265 -33.7,-66.9 c 2.497,-2.658 4.039,-6.222 4.039,-10.148 0,-8.188 -6.66,-14.848 -14.848,-14.848 C 6.659,25.793 0,32.453 0,40.641 0,47.416 4.566,53.133 10.779,54.908 L 59.677,185.04 c 1.099,2.925 3.896,4.862 7.021,4.862 h 132 c 3.126,0 5.925,-1.939 7.022,-4.866 L 254.598,54.695 c 5.861,-1.987 10.097,-7.529 10.097,-14.054 z"
           inkscape:connector-curvature="0"
           style="fill:#1a1a1a" />
        <g
           id="g7717"
           style="fill:#1a1a1a" />
        <g
           id="g7719"
           style="fill:#1a1a1a" />
        <g
           id="g7721"
           style="fill:#1a1a1a" />
        <g
           id="g7723"
           style="fill:#1a1a1a" />
        <g
           id="g7725"
           style="fill:#1a1a1a" />
        <g
           id="g7727"
           style="fill:#1a1a1a" />
        <g
           id="g7729"
           style="fill:#1a1a1a" />
        <g
           id="g7731"
           style="fill:#1a1a1a" />
        <g
           id="g7733"
           style="fill:#1a1a1a" />
        <g
           id="g7735"
           style="fill:#1a1a1a" />
        <g
           id="g7737"
           style="fill:#1a1a1a" />
        <g
           id="g7739"
           style="fill:#1a1a1a" />
        <g
           id="g7741"
           style="fill:#1a1a1a" />
        <g
           id="g7743"
           style="fill:#1a1a1a" />
        <g
           id="g7745"
           style="fill:#1a1a1a" />
      </g>
    </g>
    <g
       id="g6734"
       transform="translate(149.42634,-39.75808)">
      <path
         transform="matrix(0.16450889,0,0,0.16945964,83.143695,896.47444)"
         sodipodi:type="arc"
         style="fill:#ff5555;fill-opacity:1;fill-rule:nonzero;stroke:none"
         id="path5857-4"
         sodipodi:cx="141.28325"
         sodipodi:cy="125.4384"
         sodipodi:rx="76.583443"
         sodipodi:ry="73.942635"
         d="m 217.86669,125.4384 c 0,40.83739 -34.28757,73.94263 -76.58344,73.94263 -42.295869,0 -76.583444,-33.10524 -76.583444,-73.94263 0,-40.837389 34.287575,-73.942634 76.583444,-73.942634 42.29587,0 76.58344,33.105245 76.58344,73.942634 z" />
      <g
         style="fill:#ffffff"
         id="g6368"
         transform="matrix(0.73632667,0,0,0.73632667,94.991134,906.20812)">
        <g
           style="fill:#ffffff"
           id="g6370">
          <g
             style="fill:#ffffff"
             id="g6372">
            <path
               style="fill:#ffffff"
               id="path6374"
               d="m 21.595,24.502 c -0.562,-0.617 -0.354,-2.674 -0.354,-2.674 0,0 1.107,-4.826 1.711,-5.932 0.604,-1.105 0.62,-4.278 0.62,-4.278 0,0 -0.118,-1.963 -0.974,-4.384 C 21.742,4.814 18.746,2.794 16.726,2.468 16.519,1.333 14.734,0 14.734,0 c 0,0 0.295,2.439 -0.03,2.483 -0.325,0.044 -1.682,0.443 -1.682,0.443 l 0.31,1.003 c -1.756,0.518 -2.458,1.019 -2.458,1.019 0,0 -0.05,0.089 -0.375,0.753 -0.325,0.664 -4.205,3.762 -4.388,3.969 -0.183,0.207 -0.078,0.604 -0.078,0.604 0,0 -0.062,0.812 -0.106,0.856 -0.044,0.045 -0.163,0.664 0.051,0.93 0.214,0.267 0.376,0.59 0.803,0.944 0.428,0.354 0.546,0.118 0.546,0.118 0,0 0.036,0.135 1.225,0.321 1.461,0.013 1.962,-1.059 1.962,-1.059 0,0 0.428,-0.752 1.564,-0.531 2.272,1.181 3.815,0.292 3.815,0.292 0,0 -1.849,1.532 -4.603,5.564 C 8.536,21.74 10.503,24.5 10.503,24.5 h 11.092 z"
               inkscape:connector-curvature="0" />
            <path
               style="fill:#ffffff"
               id="path6376"
               d="m 22.653,28.955 c 0,0.26 -0.211,0.471 -0.472,0.471 H 9.71 c -0.261,0 -0.472,-0.211 -0.472,-0.471 v -3.533 c 0,-0.26 0.211,-0.471 0.472,-0.471 h 12.472 c 0.261,0 0.472,0.211 0.472,0.471 v 3.533 z"
               inkscape:connector-curvature="0" />
          </g>
        </g>
        <g
           style="fill:#ffffff"
           id="g6378" />
        <g
           style="fill:#ffffff"
           id="g6380" />
        <g
           style="fill:#ffffff"
           id="g6382" />
        <g
           style="fill:#ffffff"
           id="g6384" />
        <g
           style="fill:#ffffff"
           id="g6386" />
        <g
           style="fill:#ffffff"
           id="g6388" />
        <g
           style="fill:#ffffff"
           id="g6390" />
        <g
           style="fill:#ffffff"
           id="g6392" />
        <g
           style="fill:#ffffff"
           id="g6394" />
        <g
           style="fill:#ffffff"
           id="g6396" />
        <g
           style="fill:#ffffff"
           id="g6398" />
        <g
           style="fill:#ffffff"
           id="g6400" />
        <g
           style="fill:#ffffff"
           id="g6402" />
        <g
           style="fill:#ffffff"
           id="g6404" />
        <g
           style="fill:#ffffff"
           id="g6406" />
      </g>
    </g>
    <g
       id="g6883"
       transform="translate(138.75303,44.294236)">
      <path
         d="m 217.86669,125.4384 c 0,40.83739 -34.28757,73.94263 -76.58344,73.94263 -42.295869,0 -76.583444,-33.10524 -76.583444,-73.94263 0,-40.837389 34.287575,-73.942634 76.583444,-73.942634 42.29587,0 76.58344,33.105245 76.58344,73.942634 z"
         sodipodi:ry="73.942635"
         sodipodi:rx="76.583443"
         sodipodi:cy="125.4384"
         sodipodi:cx="141.28325"
         id="path7747"
         style="fill:#ff5555;fill-opacity:1;fill-rule:nonzero;stroke:none"
         sodipodi:type="arc"
         transform="matrix(0.16450889,0,0,0.16945964,83.732458,954.17303)" />
      <g
         transform="matrix(0.73632667,0,0,0.73632667,95.579898,963.90669)"
         id="g7749"
         style="fill:#1a1a1a">
        <g
           id="g7751"
           style="fill:#1a1a1a">
          <g
             id="g7753"
             style="fill:#1a1a1a">
            <path
               inkscape:connector-curvature="0"
               d="m 21.595,24.502 c -0.562,-0.617 -0.354,-2.674 -0.354,-2.674 0,0 1.107,-4.826 1.711,-5.932 0.604,-1.105 0.62,-4.278 0.62,-4.278 0,0 -0.118,-1.963 -0.974,-4.384 C 21.742,4.814 18.746,2.794 16.726,2.468 16.519,1.333 14.734,0 14.734,0 c 0,0 0.295,2.439 -0.03,2.483 -0.325,0.044 -1.682,0.443 -1.682,0.443 l 0.31,1.003 c -1.756,0.518 -2.458,1.019 -2.458,1.019 0,0 -0.05,0.089 -0.375,0.753 -0.325,0.664 -4.205,3.762 -4.388,3.969 -0.183,0.207 -0.078,0.604 -0.078,0.604 0,0 -0.062,0.812 -0.106,0.856 -0.044,0.045 -0.163,0.664 0.051,0.93 0.214,0.267 0.376,0.59 0.803,0.944 0.428,0.354 0.546,0.118 0.546,0.118 0,0 0.036,0.135 1.225,0.321 1.461,0.013 1.962,-1.059 1.962,-1.059 0,0 0.428,-0.752 1.564,-0.531 2.272,1.181 3.815,0.292 3.815,0.292 0,0 -1.849,1.532 -4.603,5.564 C 8.536,21.74 10.503,24.5 10.503,24.5 h 11.092 z"
               id="path7755"
               style="fill:#1a1a1a" />
            <path
               inkscape:connector-curvature="0"
               d="m 22.653,28.955 c 0,0.26 -0.211,0.471 -0.472,0.471 H 9.71 c -0.261,0 -0.472,-0.211 -0.472,-0.471 v -3.533 c 0,-0.26 0.211,-0.471 0.472,-0.471 h 12.472 c 0.261,0 0.472,0.211 0.472,0.471 v 3.533 z"
               id="path7757"
               style="fill:#1a1a1a" />
          </g>
        </g>
        <g
           id="g7759"
           style="fill:#1a1a1a" />
        <g
           id="g7761"
           style="fill:#1a1a1a" />
        <g
           id="g7763"
           style="fill:#1a1a1a" />
        <g
           id="g7765"
           style="fill:#1a1a1a" />
        <g
           id="g7767"
           style="fill:#1a1a1a" />
        <g
           id="g7769"
           style="fill:#1a1a1a" />
        <g
           id="g7771"
           style="fill:#1a1a1a" />
        <g
           id="g7773"
           style="fill:#1a1a1a" />
        <g
           id="g7775"
           style="fill:#1a1a1a" />
        <g
           id="g7777"
           style="fill:#1a1a1a" />
        <g
           id="g7779"
           style="fill:#1a1a1a" />
        <g
           id="g7781"
           style="fill:#1a1a1a" />
        <g
           id="g7783"
           style="fill:#1a1a1a" />
        <g
           id="g7785"
           style="fill:#1a1a1a" />
        <g
           id="g7787"
           style="fill:#1a1a1a" />
      </g>
    </g>
    <g
       id="g11393">
      <path
         transform="matrix(0.16450889,0,0,0.16945964,233.20681,918.46097)"
         sodipodi:type="arc"
         style="fill:#ff5555;fill-opacity:1;fill-rule:nonzero;stroke:none"
         id="path5857-3"
         sodipodi:cx="141.28325"
         sodipodi:cy="125.4384"
         sodipodi:rx="76.583443"
         sodipodi:ry="73.942635"
         d="m 217.86669,125.4384 a 76.583443,73.942635 0 1 1 -153.166884,0 76.583443,73.942635 0 1 1 153.166884,0 z" />
      <g
         style="fill:#ffffff"
         id="g6408"
         transform="matrix(0.03758116,0,0,0.03758116,247.27971,930.73859)">
        <g
           style="fill:#ffffff"
           id="g6410">
          <path
             style="fill:#ffffff"
             id="path6412"
             d="m 365.448,432.474 h -0.232 c 6.283,-5.818 10.28,-14.067 10.28,-23.306 0,-17.59 -14.262,-31.852 -31.852,-31.852 h -6.385 L 302.126,202.037 c 14.588,-2.908 25.591,-15.778 25.591,-31.221 0,-6.929 -2.271,-13.298 -6.026,-18.523 H 158.559 c -3.755,5.225 -6.026,11.594 -6.026,18.523 0,15.443 11.003,28.313 25.591,31.221 l -35.133,175.279 h -6.385 c -17.59,0 -31.852,14.262 -31.852,31.852 0,9.239 3.997,17.488 10.28,23.306 H 114.8 c -16.174,0 -29.292,13.118 -29.292,29.293 v 12.279 c 0,3.422 2.784,6.206 6.205,6.206 h 296.823 c 3.423,0 6.206,-2.784 6.206,-6.206 v -12.279 c 10e-4,-16.175 -13.118,-29.293 -29.294,-29.293 z"
             inkscape:connector-curvature="0" />
          <path
             style="fill:#ffffff"
             id="path6414"
             d="M 369.858,6.205 C 369.858,2.784 365.658,0 360.503,0 h -44.435 c -5.179,0 -9.361,2.784 -9.361,6.205 V 57.631 H 271.705 V 6.205 C 271.705,2.784 267.513,0 262.358,0 h -44.465 c -5.147,0 -9.347,2.784 -9.347,6.205 V 57.631 H 173.544 V 6.205 C 173.544,2.784 169.36,0 164.181,0 h -44.433 c -5.163,0 -9.355,2.784 -9.355,6.205 V 120.939 H 369.858 V 6.205 z"
             inkscape:connector-curvature="0" />
        </g>
        <g
           style="fill:#ffffff"
           id="g6416" />
        <g
           style="fill:#ffffff"
           id="g6418" />
        <g
           style="fill:#ffffff"
           id="g6420" />
        <g
           style="fill:#ffffff"
           id="g6422" />
        <g
           style="fill:#ffffff"
           id="g6424" />
        <g
           style="fill:#ffffff"
           id="g6426" />
        <g
           style="fill:#ffffff"
           id="g6428" />
        <g
           style="fill:#ffffff"
           id="g6430" />
        <g
           style="fill:#ffffff"
           id="g6432" />
        <g
           style="fill:#ffffff"
           id="g6434" />
        <g
           style="fill:#ffffff"
           id="g6436" />
        <g
           style="fill:#ffffff"
           id="g6438" />
        <g
           style="fill:#ffffff"
           id="g6440" />
        <g
           style="fill:#ffffff"
           id="g6442" />
        <g
           style="fill:#ffffff"
           id="g6444" />
      </g>
    </g>
    <g
       id="g6800"
       transform="translate(99.261782,0.26683237)">
      <path
         d="m 217.86669,125.4384 c 0,40.83739 -34.28757,73.94263 -76.58344,73.94263 -42.295869,0 -76.583444,-33.10524 -76.583444,-73.94263 0,-40.837389 34.287575,-73.942634 76.583444,-73.942634 42.29587,0 76.58344,33.105245 76.58344,73.942634 z"
         sodipodi:ry="73.942635"
         sodipodi:rx="76.583443"
         sodipodi:cy="125.4384"
         sodipodi:cx="141.28325"
         id="path7789"
         style="fill:#ff5555;fill-opacity:1;fill-rule:nonzero;stroke:none"
         sodipodi:type="arc"
         transform="matrix(0.16450889,0,0,0.16945964,112.6535,954.27935)" />
      <g
         transform="matrix(0.03758116,0,0,0.03758116,126.72641,966.55689)"
         id="g7791"
         style="fill:#1a1a1a">
        <g
           id="g7793"
           style="fill:#1a1a1a">
          <path
             inkscape:connector-curvature="0"
             d="m 365.448,432.474 h -0.232 c 6.283,-5.818 10.28,-14.067 10.28,-23.306 0,-17.59 -14.262,-31.852 -31.852,-31.852 h -6.385 L 302.126,202.037 c 14.588,-2.908 25.591,-15.778 25.591,-31.221 0,-6.929 -2.271,-13.298 -6.026,-18.523 H 158.559 c -3.755,5.225 -6.026,11.594 -6.026,18.523 0,15.443 11.003,28.313 25.591,31.221 l -35.133,175.279 h -6.385 c -17.59,0 -31.852,14.262 -31.852,31.852 0,9.239 3.997,17.488 10.28,23.306 H 114.8 c -16.174,0 -29.292,13.118 -29.292,29.293 v 12.279 c 0,3.422 2.784,6.206 6.205,6.206 h 296.823 c 3.423,0 6.206,-2.784 6.206,-6.206 v -12.279 c 10e-4,-16.175 -13.118,-29.293 -29.294,-29.293 z"
             id="path7795"
             style="fill:#1a1a1a" />
          <path
             inkscape:connector-curvature="0"
             d="M 369.858,6.205 C 369.858,2.784 365.658,0 360.503,0 h -44.435 c -5.179,0 -9.361,2.784 -9.361,6.205 V 57.631 H 271.705 V 6.205 C 271.705,2.784 267.513,0 262.358,0 h -44.465 c -5.147,0 -9.347,2.784 -9.347,6.205 V 57.631 H 173.544 V 6.205 C 173.544,2.784 169.36,0 164.181,0 h -44.433 c -5.163,0 -9.355,2.784 -9.355,6.205 V 120.939 H 369.858 V 6.205 z"
             id="path7797"
             style="fill:#1a1a1a" />
        </g>
        <g
           id="g7799"
           style="fill:#1a1a1a" />
        <g
           id="g7801"
           style="fill:#1a1a1a" />
        <g
           id="g7803"
           style="fill:#1a1a1a" />
        <g
           id="g7805"
           style="fill:#1a1a1a" />
        <g
           id="g7807"
           style="fill:#1a1a1a" />
        <g
           id="g7809"
           style="fill:#1a1a1a" />
        <g
           id="g7811"
           style="fill:#1a1a1a" />
        <g
           id="g7813"
           style="fill:#1a1a1a" />
        <g
           id="g7815"
           style="fill:#1a1a1a" />
        <g
           id="g7817"
           style="fill:#1a1a1a" />
        <g
           id="g7819"
           style="fill:#1a1a1a" />
        <g
           id="g7821"
           style="fill:#1a1a1a" />
        <g
           id="g7823"
           style="fill:#1a1a1a" />
        <g
           id="g7825"
           style="fill:#1a1a1a" />
        <g
           id="g7827"
           style="fill:#1a1a1a" />
      </g>
    </g>
  </g>
  <g
     inkscape:groupmode="layer"
     id="layer2"
     inkscape:label="bishop.black" />
  <g
     inkscape:groupmode="layer"
     id="layer3"
     inkscape:label="rook.white" />
  <g
     inkscape:groupmode="layer"
     id="layer4"
     inkscape:label="rook.black" />
  <g
     inkscape:groupmode="layer"
     id="layer5"
     inkscape:label="knight.white" />
  <g
     inkscape:groupmode="layer"
     id="layer6"
     inkscape:label="knight.black" />
</svg>
