<?xml version="1.0" standalone="no"?>
<!DOCTYPE svg PUBLIC "-//W3C//DTD SVG 20010904//EN"
 "http://www.w3.org/TR/2001/REC-SVG-20010904/DTD/svg10.dtd">
<svg version="1.0" xmlns="http://www.w3.org/2000/svg"
 width="1356.000000pt" height="1409.000000pt" viewBox="0 0 1356.000000 1409.000000"
 preserveAspectRatio="xMidYMid meet">
<metadata>
Created by potrace 1.12, written by Peter Selinger 2001-2015
</metadata>
<g transform="translate(0.000000,1409.000000) scale(0.100000,-0.100000)"
fill="#000000" stroke="none">
<path d="M1 13210 l-3 -880 851 0 851 0 0 -880 0 -880 -844 0 -844 0 -7 -865
c-4 -475 -5 -871 -2 -880 6 -13 99 -15 852 -15 l845 0 0 -880 0 -880 -843 0
-844 0 -6 -652 c-4 -359 -7 -758 -7 -885 l0 -233 850 0 850 0 0 -875 0 -875
-839 0 c-462 0 -842 -3 -844 -7 -3 -5 -8 -403 -12 -885 l-8 -878 852 0 851 0
0 -880 0 -880 850 0 850 0 0 880 0 880 845 0 845 0 0 -880 0 -880 848 0 847 0
-3 880 -2 880 850 0 850 0 0 -880 0 -880 845 0 845 0 0 880 0 880 845 0 845 0
0 -880 0 -880 850 0 850 0 0 880 0 880 -845 0 -845 0 0 880 0 880 845 0 845 0
0 885 0 885 -845 0 -845 0 0 880 0 880 845 0 845 0 0 880 0 880 -845 0 -845 0
0 880 0 880 845 0 845 0 0 880 0 880 -845 0 -845 0 0 875 0 875 593 3 c325 1
-2344 3 -5933 5 l-6525 2 -4 -880z m3399 -5 l0 -875 845 0 845 0 0 875 0 875
845 0 845 0 0 -875 0 -875 850 0 850 0 0 875 0 875 845 0 845 0 0 -875 0 -875
845 0 845 0 0 -880 0 -880 -845 0 -845 0 0 -880 0 -880 845 0 845 0 0 -880 0
-880 -845 0 -845 0 0 -880 0 -880 -845 0 -845 0 0 880 0 880 -850 0 -850 0 0
-880 0 -880 -845 0 -845 0 0 880 0 880 -845 0 -845 0 0 -880 0 -880 -850 0
-850 0 2 878 3 877 848 3 847 2 0 880 0 880 -847 2 -848 3 -3 878 -2 877 850
0 850 0 0 880 0 880 -850 0 -850 0 0 875 0 875 850 0 850 0 0 -875z m1690
-8800 l0 -875 -842 -2 -843 -3 -3 -883 -2 -882 -848 2 -847 3 -3 878 -2 877
850 0 850 0 0 880 0 880 845 0 845 0 0 -875z m3390 0 l0 -875 -850 0 -850 0 0
875 0 875 850 0 850 0 0 -875z m3380 0 l0 -875 -842 -2 -843 -3 -3 -882 -2
-883 -845 0 -845 0 0 880 0 880 845 0 845 0 0 880 0 880 845 0 845 0 0 -875z
m-5080 -1765 l0 -880 -845 0 -845 0 0 880 0 880 845 0 845 0 0 -880z"/>
<path d="M5090 11450 l0 -880 -845 0 -845 0 0 -880 0 -880 845 0 845 0 0 -880
0 -880 845 0 845 0 2 878 3 877 848 3 847 2 0 -880 0 -880 845 0 845 0 0 880
0 880 -845 0 -845 0 0 880 0 880 845 0 845 0 0 880 0 880 -845 0 -845 0 0
-875 0 -875 -819 0 c-450 0 -833 -3 -850 -6 l-31 -6 0 881 0 881 -845 0 -845
0 0 -880z m1690 -1760 l0 -880 -845 0 -845 0 0 880 0 880 845 0 845 0 0 -880z"/>
</g>
</svg>
